<?xml version="1.0" encoding="utf-8"?>
<!-- Generator: Adobe Illustrator 16.0.0, SVG Export Plug-In . SVG Version: 6.00 Build 0)  -->
<!DOCTYPE svg PUBLIC "-//W3C//DTD SVG 1.1//EN" "http://www.w3.org/Graphics/SVG/1.1/DTD/svg11.dtd">
<svg version="1.1" id="Layer_1" xmlns="http://www.w3.org/2000/svg" xmlns:xlink="http://www.w3.org/1999/xlink" x="0px" y="0px"
	 width="200px" height="200px" viewBox="0 0 200 200" enable-background="new 0 0 200 200" xml:space="preserve">
<g id="LhvqJR.tif">
	<g>
		<path fill-rule="evenodd" clip-rule="evenodd" fill="#00ABE5" d="M157.757,129.652c0,3.242,0.041,6.484-0.01,9.727
			c-0.078,5.066-3.344,8.553-8.363,8.223c-3.702-0.242-5.979,0.592-7.22,4.348c-0.705,2.133-2.286,4.002-3.609,5.895
			c-0.631,0.902-0.684,1.566-0.078,2.461c0.666,0.98,1.204,2.051,1.772,3.096c2.339,4.299,1.319,8.838-2.845,11.406
			c-5.851,3.605-11.802,7.051-17.764,10.473c-2.646,1.518-6.351,0.961-8.716-1.131c-0.637-0.562-1.417-1.186-1.663-1.934
			c-1.374-4.188-4.183-5.201-8.294-4.432c-1.96,0.367-4.08-0.197-6.123-0.145c-0.671,0.018-1.524,0.494-1.947,1.035
			c-0.807,1.029-1.324,2.281-2.031,3.396c-2.312,3.652-6.993,5.051-10.776,2.943c-6.062-3.375-12.056-6.881-17.978-10.496
			c-3.302-2.018-4.434-6.197-3.001-9.799c0.098-0.246,0.21-0.484,0.332-0.719c0.882-1.689,2.525-3.414,2.441-5.053
			c-0.085-1.654-1.948-3.184-2.911-4.836s-1.866-3.352-2.621-5.107c-0.442-1.027-1.013-1.377-2.09-1.324
			c-1.518,0.074-3.045,0.057-4.563-0.02c-3.815-0.195-7.161-3.033-7.279-6.83c-0.232-7.4-0.241-14.818-0.019-22.217
			c0.121-4.023,3.585-7.293,7.748-6.922c4.302,0.385,6.643-1,8.023-5.002c0.65-1.883,2.056-3.529,3.244-5.195
			c0.621-0.87,0.763-1.523,0.138-2.455c-0.807-1.204-1.514-2.487-2.142-3.795c-1.863-3.883-0.685-8.392,2.983-10.623
			c5.703-3.468,11.468-6.842,17.293-10.1c4.25-2.376,9.267-1.094,11.393,3.267c1.619,3.32,3.523,4.473,7.17,3.73
			c2.199-0.449,4.603,0.185,6.912,0.144c0.675-0.012,1.515-0.523,1.968-1.066c0.709-0.849,1.146-1.924,1.713-2.894
			c2.421-4.139,6.876-5.68,11.061-3.393c6.086,3.328,12.061,6.873,17.969,10.511c3.509,2.161,4.536,6.788,2.667,10.544
			c-0.845,1.696-2.451,3.393-2.396,5.045c0.053,1.582,1.842,3.088,2.811,4.662c0.692,1.125,1.546,2.238,1.876,3.477
			c0.725,2.719,2.431,3.428,4.96,3.012c0.515-0.084,1.057-0.014,1.586-0.004c5.026,0.107,8.248,3.318,8.372,8.369
			c0.04,1.654,0.016,3.309,0.019,4.963c0.002,1.588,0,3.176,0,4.764C157.764,129.652,157.761,129.652,157.757,129.652z
			 M129.688,158.693c4.332-4.697,7.252-10.051,9.314-15.922c0.182-0.518,1.097-1.072,1.695-1.1c2.574-0.121,5.159-0.105,7.738-0.033
			c1.727,0.047,2.558-0.547,2.542-2.395c-0.054-6.219-0.037-12.438,0.001-18.656c0.01-1.605-0.68-2.285-2.266-2.26
			c-2.514,0.041-5.03-0.064-7.541,0.037c-1.321,0.055-1.973-0.322-2.446-1.633c-1.9-5.252-4.398-10.203-8.176-14.391
			c-0.795-0.883-0.659-1.512-0.109-2.41c1.309-2.143,2.525-4.342,3.758-6.53c0.711-1.263,0.714-2.243-0.789-3.096
			c-5.401-3.067-10.753-6.225-16.093-9.399c-1.392-0.827-2.299-0.588-3.069,0.816c-1.176,2.143-2.479,4.218-3.636,6.371
			c-0.598,1.112-1.164,1.6-2.602,1.31c-5.498-1.11-11.042-1.162-16.549-0.013c-1.104,0.23-1.667,0.042-2.198-0.964
			c-1.142-2.161-2.45-4.233-3.626-6.376c-0.868-1.584-1.89-1.979-3.537-0.994c-5.218,3.121-10.466,6.194-15.749,9.203
			c-1.534,0.874-1.646,1.874-0.838,3.253c1.235,2.11,2.396,4.267,3.689,6.339c0.611,0.979,0.698,1.672-0.159,2.581
			c-3.931,4.164-6.525,9.121-8.246,14.537c-0.355,1.117-0.9,1.41-1.985,1.383c-2.579-0.064-5.161,0.016-7.74-0.031
			c-1.657-0.031-2.387,0.615-2.37,2.35c0.059,6.219,0.059,12.438,0.003,18.656c-0.016,1.754,0.76,2.348,2.401,2.314
			c2.646-0.053,5.295-0.07,7.938,0.035c0.547,0.021,1.384,0.531,1.555,1.008c1.99,5.537,4.968,10.49,8.561,15.119
			c0.352,0.453,0.407,1.486,0.137,2.012c-1.18,2.287-2.531,4.488-3.818,6.721c-0.625,1.082-0.862,2.119,0.451,2.889
			c5.587,3.275,11.173,6.555,16.776,9.803c1.168,0.678,2.026,0.445,2.709-0.891c1.141-2.234,2.533-4.338,3.713-6.553
			c0.57-1.072,1.135-1.533,2.457-1.254c5.566,1.178,11.168,1.172,16.738,0.014c1.177-0.246,1.65,0.186,2.149,1.096
			c1.238,2.26,2.58,4.463,3.835,6.715c0.731,1.312,1.595,1.547,2.917,0.762c5.341-3.172,10.71-6.299,16.083-9.416
			c1.432-0.832,1.72-1.836,0.853-3.279C132.661,163.93,131.245,161.395,129.688,158.693z"/>
		<path fill-rule="evenodd" clip-rule="evenodd" fill="#00ABE5" d="M161.387,133.227c0-2.24,0-4.199,0-6.49
			c1.234,0,2.4,0.064,3.557-0.012c4.141-0.27,8.455,0.061,12.38-1.014c9.055-2.48,14.512-8.816,15.927-18.082
			c1.485-9.731-2.137-17.419-10.695-22.457c-2.699-1.588-5.73-2.613-8.73-3.951c6.207-14.64,5.162-28.498-7.223-39.688
			C154.978,31.03,141.726,30.87,128.47,37.67c-3.25-3.083-6.176-6.251-9.493-8.938C100.358,13.658,67.837,18.43,55.638,44.333
			c-1.011,2.145-1.853,4.381-2.592,6.634c-0.375,1.143-0.82,1.54-2.066,1.449c-4.201-0.302-8.32,0.198-12.27,1.739
			c-10.437,4.071-17.326,15.131-16.281,26.299c0.132,1.411-0.298,1.918-1.504,2.463C6.909,89.251,2.042,105.076,10.45,117.092
			c4.108,5.875,9.836,9.145,17.023,9.537c3.62,0.199,7.259,0.035,11.064,0.035c0,2.232,0,4.236,0,6.564
			c-3.384,0-6.792,0.105-10.192-0.018c-16.562-0.596-29.051-13.801-28.314-30.248C0.499,92.498,5.447,84.48,14.573,79.195
			c1.091-0.632,1.58-1.252,1.631-2.578c0.599-15.516,13.027-28.787,28.447-30.212c2.592-0.24,3.717-1.193,4.749-3.56
			c13.677-31.372,54.717-38.921,78.7-14.52c1.217,1.238,2.105,1.382,3.702,0.765c22.418-8.679,48.36,6.696,51.65,30.522
			c0.743,5.378,0.589,10.7-0.937,15.915c-0.418,1.43-0.165,1.989,1.169,2.704c10.045,5.385,15.879,13.729,16.297,25.201
			c0.582,16.006-12.163,29.244-28.268,29.779C168.352,133.322,164.983,133.227,161.387,133.227z"/>
		<path fill-rule="evenodd" clip-rule="evenodd" fill="#00ABE5" d="M76.779,129.434c0.202-13.033,10.674-23.254,23.595-23.031
			c12.875,0.225,23.087,10.768,22.842,23.578c-0.253,13.152-10.656,23.111-23.886,22.865
			C86.702,152.613,76.583,142.107,76.779,129.434z M116.74,130.066c0.026-9.248-7.49-16.855-16.688-16.889
			c-9.188-0.033-16.771,7.547-16.788,16.785c-0.018,9.359,7.351,16.787,16.684,16.818
			C109.275,146.814,116.713,139.41,116.74,130.066z"/>
	</g>
</g>
</svg>
