<?xml version="1.0" encoding="utf-8"?>
<!-- Generator: Adobe Illustrator 16.0.0, SVG Export Plug-In . SVG Version: 6.00 Build 0)  -->
<!DOCTYPE svg PUBLIC "-//W3C//DTD SVG 1.1//EN" "http://www.w3.org/Graphics/SVG/1.1/DTD/svg11.dtd">
<svg version="1.1" id="Layer_1" xmlns="http://www.w3.org/2000/svg" xmlns:xlink="http://www.w3.org/1999/xlink" x="0px" y="0px"
	 width="200px" height="200px" viewBox="0 0 200 200" enable-background="new 0 0 200 200" xml:space="preserve">
<g id="Dh3LfT.tif">
	<g>
		<path fill-rule="evenodd" clip-rule="evenodd" fill="#00ABE5" d="M199.937,99.755c0,19.288-0.07,38.577,0.063,57.864
			c0.023,3.584-1.133,5.367-4.639,6.566c-30.715,10.502-61.351,21.236-92.064,31.74c-2.015,0.689-4.684,0.629-6.712-0.064
			c-30.714-10.504-61.354-21.225-92.07-31.723c-3.39-1.158-4.491-2.895-4.484-6.33C0.109,119.457,0.116,81.105,0,42.753
			C-0.012,38.907,1.185,37,4.963,35.712C35.583,25.276,66.114,14.582,96.722,4.11c1.934-0.661,4.477-0.713,6.398-0.058
			c30.927,10.571,61.788,21.339,92.703,31.946c3.069,1.053,4.177,2.72,4.16,5.893C199.889,61.179,199.937,80.467,199.937,99.755z
			 M103.579,79.317c0,36.404,0,72.578,0,109.121c1.395-0.41,2.562-0.701,3.695-1.094c27.495-9.52,54.972-19.098,82.506-28.506
			c2.634-0.9,3.278-2.102,3.271-4.732c-0.095-34.082-0.066-68.167-0.069-102.25c0-0.989,0-1.979,0-3.482
			C162.897,58.786,133.227,69.054,103.579,79.317z M7.262,48.48c-0.109,0.907-0.208,1.343-0.208,1.777
			C7.042,85.25,7.061,120.242,6.975,155.234c-0.005,2.223,1.061,2.791,2.784,3.387c27.833,9.6,55.651,19.246,83.478,28.869
			c0.998,0.346,2.045,0.549,3.351,0.893c0-9.164,0-17.904,0-26.643c-0.001-26.469,0.009-52.938-0.042-79.407
			c-0.002-1.08-0.302-2.891-0.931-3.13c-6.427-2.438-12.95-4.622-19.771-6.989c0,13.914,0.066,27.256-0.084,40.594
			c-0.02,1.664-0.771,4.146-1.944,4.738c-1.146,0.574-3.604-0.355-4.902-1.371c-6.624-5.178-13.004-10.666-19.614-15.862
			c-1.128-0.888-3.02-1.353-4.464-1.186c-4.778,0.552-9.509,1.52-14.269,2.254c-5.399,0.834-6.417-0.043-6.421-5.417
			c-0.008-12.897,0.038-25.796-0.073-38.692c-0.01-1.188-0.699-3.088-1.563-3.434C17.644,51.893,12.628,50.319,7.262,48.48z
			 M37.837,51.707c10.567,3.678,20.253,7.146,30.022,10.358c1.739,0.572,4.003,0.591,5.728-0.001
			c20.544-7.041,41.034-14.24,61.534-21.411c8.395-2.937,16.776-5.903,25.649-9.028c-0.853-0.507-1.183-0.786-1.563-0.919
			c-9.94-3.45-19.877-6.917-29.85-10.272c-0.928-0.312-2.18-0.121-3.147,0.217c-18.179,6.349-36.336,12.758-54.499,19.149
			C60.745,43.659,49.777,47.509,37.837,51.707z M191.05,41.731c-6.05-2.1-11.175-4.029-16.406-5.606
			c-1.673-0.505-3.792-0.559-5.426,0c-17.793,6.078-35.53,12.316-53.281,18.517c-11.296,3.944-22.589,7.896-34.6,12.096
			c5.841,2.044,10.953,3.97,16.165,5.572c1.565,0.482,3.553,0.498,5.1-0.017c11.042-3.676,22.021-7.542,33.02-11.353
			C153.806,54.641,171.987,48.337,191.05,41.731z M69.017,107.439c0-11.755,0.048-22.708-0.097-33.658
			c-0.012-0.819-1.246-1.979-2.171-2.372c-5.971-2.539-12.015-4.909-18.032-7.337c-5.684-2.294-11.366-4.592-17.335-7.004
			c0,12.56,0,24.693,0,37.181c4.694-0.783,9.123-1.371,13.479-2.3c3.126-0.668,5.509-0.022,7.947,2.128
			C57.837,98.514,63.146,102.635,69.017,107.439z M117.581,16.321c-5.224-1.836-9.669-3.641-14.264-4.903
			c-2.099-0.575-4.691-0.666-6.722,0.022c-20.449,6.931-40.828,14.072-61.228,21.148c-8.543,2.963-17.091,5.911-26.37,9.121
			c5.871,2.055,10.963,3.946,16.138,5.576c1.355,0.428,3.104,0.438,4.439-0.027c21.871-7.615,43.704-15.339,65.547-23.035
			C102.382,21.666,109.644,19.114,117.581,16.321z"/>
		<path fill-rule="evenodd" clip-rule="evenodd" fill="#00ABE5" d="M89.501,158.723c-8.854-2.789-17.282-5.377-25.636-8.188
			c-0.824-0.277-1.423-1.865-1.699-2.953c-0.289-1.141-0.063-2.414-0.063-4.105c1.983,0.529,3.556,0.904,5.1,1.369
			c6.101,1.838,12.121,4.016,18.314,5.443c3.709,0.855,4.745,2.654,4.219,6.025C89.634,156.963,89.605,157.621,89.501,158.723z"/>
		<path fill-rule="evenodd" clip-rule="evenodd" fill="#00ABE5" d="M79.284,162.273c3.359,1.074,6.317,1.951,9.212,3.006
			c0.539,0.197,1.138,1.092,1.164,1.689c0.124,2.754,0.055,5.518,0.055,8.916c-3.444-1.092-6.397-1.957-9.284-3.006
			c-0.521-0.189-1.069-1.109-1.095-1.717C79.219,168.396,79.284,165.621,79.284,162.273z"/>
		<path fill-rule="evenodd" clip-rule="evenodd" fill="#00ABE5" d="M55.151,165.033c-3.357-1.055-6.219-1.891-9.019-2.893
			c-0.549-0.197-1.204-1.029-1.229-1.594c-0.125-2.854-0.058-5.717-0.058-9.045c3.289,1.037,6.149,1.873,8.949,2.875
			c0.568,0.205,1.269,1.023,1.295,1.588C55.223,158.816,55.151,161.678,55.151,165.033z"/>
		<path fill-rule="evenodd" clip-rule="evenodd" fill="#00ABE5" d="M62.177,156.93c3.803,1.201,6.953,2.195,10.133,3.199
			c0,3.412,0,6.623,0,10.219c-3.054-0.922-5.925-1.699-8.715-2.699c-0.619-0.223-1.316-1.223-1.354-1.896
			C62.088,162.988,62.177,160.211,62.177,156.93z"/>
		<path fill-rule="evenodd" clip-rule="evenodd" fill="#00ABE5" d="M44.859,137.658c2.088,0.619,3.683,1.076,5.268,1.564
			c5.718,1.762,6.041,2.359,4.591,8.803c-2.932-1.061-5.904-1.953-8.678-3.266c-0.715-0.338-0.964-1.973-1.137-3.057
			C44.713,140.514,44.859,139.273,44.859,137.658z"/>
	</g>
</g>
</svg>
