<?xml version="1.0" encoding="utf-8"?>
<!-- Generator: Adobe Illustrator 16.0.0, SVG Export Plug-In . SVG Version: 6.00 Build 0)  -->
<!DOCTYPE svg PUBLIC "-//W3C//DTD SVG 1.1//EN" "http://www.w3.org/Graphics/SVG/1.1/DTD/svg11.dtd">
<svg version="1.1" id="Layer_1" xmlns="http://www.w3.org/2000/svg" xmlns:xlink="http://www.w3.org/1999/xlink" x="0px" y="0px"
	 width="200px" height="200px" viewBox="0 0 200 200" enable-background="new 0 0 200 200" xml:space="preserve">
<g>
	<g id="Yvprz8.tif">
		<g>
			<path fill-rule="evenodd" clip-rule="evenodd" fill="#00ABE5" d="M49.679,153.642c2.682,0.236,11.213,8.715,11.463,11.422
				c4.271-1.25,8.543-2.371,12.717-3.786c1.627-0.55,3.287-1.501,4.498-2.705c18.986-18.875,37.9-37.823,56.84-56.748
				c1.066-1.064,2.191-2.697,3.824-1.071c1.611,1.605,0.051,2.754-1.029,3.836c-19.201,19.207-38.393,38.426-57.648,57.576
				c-1.176,1.17-2.781,2.138-4.363,2.624c-9.764,2.996-19.584,5.812-29.375,8.728c-1.699,0.506-3.301,0.713-4.673-0.661
				c-1.361-1.363-1.209-2.949-0.695-4.663c2.95-9.845,5.817-19.715,8.804-29.55c0.377-1.233,1.082-2.513,1.986-3.421
				c19.574-19.653,39.199-39.256,58.807-58.879c1.021-1.022,2.123-1.689,3.312-0.49c1.324,1.333,0.365,2.417-0.656,3.438
				c-19.117,19.108-38.221,38.233-57.361,57.321c-1.41,1.406-2.375,2.919-2.893,4.859C52.161,145.504,50.905,149.487,49.679,153.642
				z M48.712,156.947c-1.229,4.165-2.469,8.374-3.816,12.936c4.559-1.347,8.795-2.599,12.895-3.811
				C54.743,163.009,51.774,160.025,48.712,156.947z"/>
			<path fill-rule="evenodd" clip-rule="evenodd" fill="#00ABE5" d="M67.239,155.791c-2.984-0.104-5.902-2.037-7.432-5.654
				c-1.504-3.552-0.957-7.024,1.826-9.814c18.855-18.91,37.754-37.778,56.629-56.669c1.035-1.036,2.156-1.624,3.311-0.377
				c1.281,1.387,0.24,2.437-0.762,3.438c-18.525,18.513-37.061,37.013-55.52,55.594c-1.082,1.089-1.873,2.767-2.146,4.287
				c-0.373,2.087,0.918,3.707,2.775,4.647c1.863,0.943,3.75,0.804,5.457-0.467c0.615-0.455,1.143-1.033,1.689-1.579
				c18.248-18.242,36.49-36.49,54.742-54.73c1.066-1.062,2.078-2.601,3.855-1.127c1.092,0.905,0.742,2.107-1.016,3.864
				c-18.471,18.474-36.949,36.941-55.404,55.432C73.288,154.595,71.081,155.836,67.239,155.791z"/>
			<path fill-rule="evenodd" clip-rule="evenodd" fill="#00ABE5" d="M34.465,76.771c-0.055-2.721,0.926-5.054,2.816-6.959
				c5.845-5.896,11.675-11.81,17.618-17.605c4.074-3.972,9.965-3.873,14.035,0.165c9.594,9.521,19.125,19.103,28.693,28.65
				c1.031,1.027,1.641,2.142,0.438,3.323c-1.24,1.22-2.312,0.427-3.305-0.568c-9.23-9.248-18.473-18.483-27.711-27.723
				c-3.729-3.731-6.68-3.74-10.4-0.021c-5.236,5.232-10.473,10.463-15.704,15.7c-3.469,3.472-3.488,6.56-0.055,9.995
				c9.28,9.287,18.569,18.568,27.851,27.854c0.453,0.455,1.137,0.879,1.26,1.419c0.176,0.768,0.227,1.928-0.219,2.37
				c-0.461,0.46-1.588,0.39-2.398,0.299c-0.412-0.045-0.777-0.627-1.141-0.99c-9.467-9.467-18.918-18.947-28.403-28.396
				C35.738,82.188,34.428,79.799,34.465,76.771z"/>
			<path fill-rule="evenodd" clip-rule="evenodd" fill="#00ABE5" d="M137.044,180.395c-1.781-0.042-4.088-1.016-5.996-2.925
				c-9.736-9.732-19.467-19.47-29.211-29.19c-0.982-0.979-1.529-2.061-0.482-3.187c1.156-1.245,2.271-0.633,3.303,0.402
				c9.451,9.47,18.916,18.927,28.379,28.386c3.379,3.373,6.699,3.396,10.033,0.065c5.371-5.365,10.74-10.73,16.1-16.104
				c3.221-3.229,3.207-6.454-0.053-9.717c-9.5-9.511-19.012-19.013-28.52-28.519c-0.408-0.41-1.059-0.782-1.15-1.259
				c-0.16-0.841-0.303-2.067,0.156-2.534c0.451-0.461,1.67-0.275,2.531-0.183c0.354,0.039,0.66,0.572,0.977,0.891
				c9.598,9.598,19.195,19.194,28.787,28.797c4.861,4.867,4.852,10.521-0.027,15.408c-5.496,5.509-11,11.014-16.516,16.507
				C143.079,179.499,140.868,180.419,137.044,180.395z"/>
			<path fill-rule="evenodd" clip-rule="evenodd" fill="#00ABE5" d="M159.083,79.578c-0.023,2.484-0.736,4.59-2.387,6.272
				c-3.602,3.669-7.262,7.285-10.885,10.934c-1.201,1.209-2.312,1.125-3.488-0.054c-8.035-8.056-16.08-16.103-24.137-24.138
				c-1.254-1.249-1.264-2.368,0.016-3.625c3.574-3.517,7.062-7.119,10.66-10.611c3.549-3.445,8.967-3.48,12.514-0.019
				c5.107,4.984,10.109,10.071,15.15,15.123C158.247,75.185,159.021,77.312,159.083,79.578z M144.231,92.587
				c3.176-3.127,6.498-6.253,9.641-9.552c1.867-1.959,1.744-4.836-0.195-6.815c-4.955-5.052-9.959-10.057-15.014-15.01
				c-1.869-1.834-4.842-2.026-6.684-0.283c-3.355,3.176-6.51,6.559-9.652,9.756C129.597,77.95,136.862,85.217,144.231,92.587z"/>
			<path fill-rule="evenodd" clip-rule="evenodd" fill="#00ABE5" d="M156.165,148.519c-0.482,0.74-0.771,1.389-1.236,1.86
				c-3.42,3.471-6.881,6.9-10.32,10.351c-0.975,0.978-2.07,1.468-3.174,0.359c-1.104-1.106-0.617-2.194,0.367-3.173
				c3.5-3.479,6.943-7.019,10.52-10.418c0.557-0.529,1.719-0.66,2.553-0.565C155.329,146.982,155.688,147.896,156.165,148.519z"/>
			<path fill-rule="evenodd" clip-rule="evenodd" fill="#00ABE5" d="M68.091,87.382c-0.574-0.511-1.465-0.928-1.564-1.486
				c-0.133-0.738,0.109-1.814,0.613-2.354c2.402-2.579,4.947-5.026,7.441-7.521c1.088-1.089,2.164-2.19,3.271-3.26
				c0.914-0.885,1.967-1.043,2.898-0.126c0.936,0.922,0.791,1.999-0.1,2.896c-3.609,3.646-7.238,7.274-10.889,10.879
				C69.376,86.792,68.8,86.98,68.091,87.382z"/>
			<path fill-rule="evenodd" clip-rule="evenodd" fill="#00ABE5" d="M127.866,147.078c-0.639-0.521-1.508-0.884-1.668-1.447
				c-0.191-0.675-0.023-1.733,0.422-2.256c1.371-1.604,2.947-3.032,4.443-4.529c2.043-2.041,4.096-4.07,6.121-6.129
				c0.957-0.974,2.018-1.565,3.168-0.484c1.242,1.167,0.652,2.278-0.379,3.302c-3.416,3.39-6.801,6.811-10.225,10.191
				C129.272,146.198,128.647,146.525,127.866,147.078z"/>
			<path fill-rule="evenodd" clip-rule="evenodd" fill="#00ABE5" d="M53.194,72.436c-0.557-0.446-1.465-0.822-1.514-1.287
				c-0.088-0.833,0.07-1.977,0.602-2.541c3.035-3.218,6.209-6.305,9.336-9.435c0.455-0.455,0.904-0.912,1.369-1.353
				c0.939-0.89,1.957-0.997,2.889-0.069c0.871,0.867,0.807,1.889-0.035,2.737c-3.699,3.737-7.424,7.453-11.164,11.148
				C54.339,71.971,53.81,72.112,53.194,72.436z"/>
			<path fill-rule="evenodd" clip-rule="evenodd" fill="#00ABE5" d="M64.763,75.617c-0.488-0.39-1.279-0.712-1.457-1.242
				c-0.211-0.624-0.158-1.677,0.244-2.11c2.32-2.492,4.715-4.925,7.25-7.195c0.451-0.404,1.922-0.231,2.479,0.221
				c0.443,0.36,0.594,1.899,0.215,2.32c-2.324,2.572-4.822,4.985-7.299,7.415C65.905,75.31,65.394,75.366,64.763,75.617z"/>
			<path fill-rule="evenodd" clip-rule="evenodd" fill="#00ABE5" d="M124.45,135.282c-0.477-0.367-1.262-0.679-1.467-1.213
				c-0.232-0.605-0.223-1.671,0.166-2.088c2.314-2.493,4.701-4.931,7.23-7.201c0.471-0.421,1.932-0.308,2.5,0.129
				c0.457,0.351,0.652,1.923,0.279,2.332c-2.373,2.608-4.926,5.055-7.447,7.523C125.46,135.01,125.021,135.058,124.45,135.282z"/>
			<path fill-rule="evenodd" clip-rule="evenodd" fill="#00ABE5" d="M148.765,140.935c-0.471,0.774-0.709,1.384-1.129,1.815
				c-2.105,2.168-4.264,4.285-6.393,6.428c-0.949,0.958-2.035,1.261-3.049,0.276c-1.023-0.993-0.73-2.089,0.221-3.041
				c2.184-2.182,4.318-4.415,6.586-6.505c0.504-0.463,1.535-0.682,2.211-0.526C147.792,139.515,148.212,140.344,148.765,140.935z"/>
			<path fill-rule="evenodd" clip-rule="evenodd" fill="#00ABE5" d="M79.729,90.515c-0.457-0.333-1.258-0.619-1.469-1.144
				c-0.242-0.606-0.252-1.689,0.133-2.101c2.365-2.535,4.812-5.003,7.383-7.326c0.428-0.386,1.881-0.255,2.344,0.184
				c0.465,0.443,0.689,1.933,0.326,2.328c-2.424,2.65-5.025,5.137-7.592,7.652C80.651,90.308,80.271,90.327,79.729,90.515z"/>
		</g>
	</g>
	<g id="gG6zu7.tif_1_">
		<g>
			<path fill-rule="evenodd" clip-rule="evenodd" fill="#00ABE5" d="M100.005,199.987c-28.799,0-57.597,0.006-86.394-0.006
				c-6.781-0.004-11.787-3.752-13.246-9.939c-0.297-1.26-0.346-2.602-0.348-3.904C0.004,136.002,0.01,85.863,0.012,35.727
				c0.002-7.385-0.016-14.77-0.004-22.152C0.02,5.481,5.43,0.009,13.484,0.009c57.597-0.012,115.19-0.012,172.786,0
				c8.262,0.002,13.707,5.383,13.711,13.557c0.016,57.455,0.018,114.905,0.014,172.359c-0.002,7.193-3.605,12.197-9.908,13.689
				c-1.455,0.344-3.012,0.369-4.521,0.369c-28.52,0.021-57.041,0.016-85.561,0.016C100.005,199.995,100.005,199.991,100.005,199.987
				z M193.651,36.282c-62.645,0-125.039,0-187.64,0c0,0.859,0,1.604,0,2.348c0,31.285-0.004,62.57-0.004,93.853
				c0,17.75-0.004,35.497,0.004,53.247c0,5.381,2.916,8.25,8.359,8.264c0.621,0,1.244,0,1.865,0c56.214,0,112.431-0.004,168.646,0
				c6.25,0,8.77-2.521,8.77-8.787c-0.004-39.571-0.002-79.144,0-118.715C193.651,56.483,193.651,46.477,193.651,36.282z M6.1,29.793
				c62.679,0,125.235,0,187.896,0c0-5.146,0.002-10.111-0.002-15.078c-0.004-5.976-2.744-8.708-8.74-8.708
				c-40.941-0.002-81.885-0.002-122.826,0c-16.156,0-32.312,0-48.468,0.008c-4.191,0.002-7.57,2.373-7.777,6.184
				C5.867,18.03,6.1,23.891,6.1,29.793z"/>
			<path fill-rule="evenodd" clip-rule="evenodd" fill="#00ABE5" d="M74.724,20.881c-16.988-0.002-33.974-0.012-50.96,0.012
				c-1.746,0.002-3.191-0.35-3.686-2.252c-0.486-1.873,0.607-3.471,2.535-3.762c0.541-0.082,1.102-0.061,1.652-0.061
				c33.696-0.002,67.394,0,101.091,0c0.482,0,0.969-0.018,1.449,0.014c2.119,0.141,3.18,1.172,3.15,3.043
				c-0.027,1.807-1.213,2.959-3.238,2.984c-3.729,0.047-7.457,0.021-11.186,0.023C101.929,20.883,88.325,20.883,74.724,20.881z"/>
			<path fill-rule="evenodd" clip-rule="evenodd" fill="#00ABE5" d="M177.95,20.872c-1.312-0.004-2.629,0.061-3.936-0.02
				c-1.695-0.105-2.654-1.08-2.746-2.779c-0.096-1.777,0.713-3.047,2.537-3.146c2.686-0.146,5.387-0.146,8.072-0.023
				c1.797,0.082,2.709,1.277,2.654,3.068c-0.055,1.797-1.053,2.803-2.855,2.891C180.438,20.922,179.192,20.874,177.95,20.872z"/>
			<path fill-rule="evenodd" clip-rule="evenodd" fill="#00ABE5" d="M153.761,20.87c-1.172,0-2.344,0.021-3.514-0.006
				c-1.82-0.039-2.787-1.062-2.957-2.807c-0.168-1.738,0.932-3.08,2.781-3.166c2.611-0.119,5.236-0.121,7.846,0.01
				c1.783,0.088,2.725,1.242,2.643,3.049c-0.082,1.789-1.127,2.775-2.875,2.904C156.384,20.948,155.069,20.872,153.761,20.87z"/>
		</g>
	</g>
</g>
</svg>
