<?xml version="1.0" encoding="utf-8"?>
<!-- Generator: Adobe Illustrator 16.0.0, SVG Export Plug-In . SVG Version: 6.00 Build 0)  -->
<!DOCTYPE svg PUBLIC "-//W3C//DTD SVG 1.1//EN" "http://www.w3.org/Graphics/SVG/1.1/DTD/svg11.dtd">
<svg version="1.1" id="Layer_1" xmlns="http://www.w3.org/2000/svg" xmlns:xlink="http://www.w3.org/1999/xlink" x="0px" y="0px"
	 width="200px" height="200px" viewBox="0 0 200 200" enable-background="new 0 0 200 200" xml:space="preserve">
<g id="gG6zu7.tif">
	<g>
		<path fill-rule="evenodd" clip-rule="evenodd" fill="#00ABE5" d="M100.004,199.988c-28.799,0-57.598,0.006-86.395-0.006
			c-6.781-0.004-11.787-3.752-13.246-9.939c-0.297-1.26-0.346-2.602-0.348-3.904C0.002,136.002,0.008,85.864,0.01,35.727
			c0.002-7.385-0.016-14.77-0.004-22.153C0.018,5.48,5.428,0.008,13.483,0.007c57.598-0.011,115.192-0.012,172.79,0
			c8.262,0.002,13.707,5.383,13.711,13.558c0.016,57.454,0.018,114.906,0.014,172.361c-0.002,7.193-3.605,12.197-9.908,13.689
			c-1.455,0.344-3.012,0.369-4.521,0.369c-28.521,0.021-57.043,0.016-85.563,0.016C100.004,199.996,100.004,199.992,100.004,199.988
			z M193.653,36.282c-62.646,0-125.042,0-187.643,0c0,0.858,0,1.603,0,2.347c0,31.285-0.004,62.571-0.004,93.854
			c0,17.75-0.004,35.498,0.004,53.248c0,5.381,2.916,8.25,8.359,8.264c0.621,0,1.244,0,1.865,0c56.215,0,112.432-0.004,168.649,0
			c6.25,0,8.77-2.521,8.77-8.787c-0.004-39.572-0.002-79.145,0-118.716C193.653,56.483,193.653,46.476,193.653,36.282z
			 M6.098,29.792c62.68,0,125.237,0,187.899,0c0-5.146,0.002-10.111-0.002-15.077c-0.004-5.978-2.744-8.71-8.74-8.71
			c-40.943-0.001-81.887-0.001-122.829,0C46.27,6.006,30.114,6.006,13.958,6.014c-4.191,0.002-7.57,2.373-7.777,6.184
			C5.866,18.029,6.098,23.89,6.098,29.792z"/>
		<path fill-rule="evenodd" clip-rule="evenodd" fill="#00ABE5" d="M124.804,125.781c-0.586,0.832-1.066,1.932-1.891,2.611
			c-2.82,2.326-5.799,4.459-8.623,6.781c-0.564,0.465-0.875,1.414-1.004,2.189c-0.156,0.936,0.191,1.965-0.004,2.885
			c-0.734,3.467,0.777,5.617,3.645,7.379c2.279,1.4,4.291,3.24,6.42,4.887c1.557,1.205,1.834,2.607,0.812,4.342
			c-2.83,4.814-5.596,9.668-8.424,14.484c-1.182,2.012-2.279,2.346-4.506,1.486c-3.471-1.342-6.91-2.77-10.42-4.002
			c-0.736-0.26-1.795-0.018-2.564,0.316c-1.32,0.572-2.463,1.578-3.801,2.072c-1.887,0.697-2.553,1.943-2.734,3.854
			c-0.334,3.498-0.863,6.98-1.348,10.465c-0.311,2.236-1.125,2.967-3.449,2.982c-5.385,0.035-10.768,0.035-16.152,0.002
			c-2.469-0.016-3.506-0.957-3.898-3.371c-0.574-3.539-1.18-7.074-1.686-10.623c-0.186-1.291-0.732-2.051-1.947-2.611
			c-1.682-0.771-3.197-1.898-4.869-2.701c-0.623-0.299-1.566-0.338-2.221-0.102c-3.496,1.268-6.941,2.68-10.42,4.002
			c-2.383,0.904-3.316,0.564-4.605-1.645c-2.641-4.529-5.264-9.066-7.875-13.609c-1.422-2.473-1.119-3.898,1.186-5.684
			c2.727-2.113,5.518-4.15,8.17-6.354c0.6-0.498,0.979-1.525,1.047-2.346c0.152-1.781-0.158-3.611,0.092-5.369
			c0.213-1.502-0.387-2.26-1.445-3.074c-2.846-2.188-5.629-4.453-8.424-6.705c-1.955-1.574-2.158-2.643-0.904-4.814
			c2.723-4.719,5.455-9.432,8.205-14.135c1.17-2.006,2.311-2.42,4.477-1.594c3.477,1.324,6.912,2.762,10.418,4.002
			c0.746,0.264,1.816,0.1,2.564-0.242c1.684-0.773,3.322-1.691,4.852-2.738c0.689-0.473,1.4-1.336,1.537-2.121
			c0.588-3.396,1.002-6.824,1.412-10.247c0.416-3.479,1.297-4.317,4.717-4.314c5.109,0.003,10.217-0.01,15.326,0.001
			c2.506,0.006,3.625,0.998,3.969,3.515c0.492,3.622,0.994,7.245,1.426,10.874c0.145,1.207,0.584,2.012,1.791,2.451
			c1.029,0.377,2.156,0.785,2.924,1.514c2.082,1.973,4.109,1.711,6.497,0.572c2.73-1.303,5.623-2.262,8.451-3.354
			c1.805-0.697,3.176-0.277,4.18,1.482c2.695,4.734,5.469,9.424,8.176,14.15C124.245,123.961,124.409,124.711,124.804,125.781z
			 M112.116,113.361c-3.596,1.412-7.072,2.717-10.494,4.145c-1.706,0.711-3.036,0.525-4.586-0.58
			c-2.342-1.668-4.848-3.166-7.445-4.395c-1.711-0.809-2.561-1.844-2.834-3.664c-0.463-3.066-1.146-6.1-1.617-9.165
			c-0.174-1.118-0.588-1.529-1.717-1.51c-3.174,0.055-6.35,0.049-9.525,0.003c-1.084-0.016-1.572,0.287-1.715,1.472
			c-0.393,3.286-1.023,6.543-1.402,9.829c-0.244,2.098-1.25,3.25-3.188,4.105c-2.311,1.02-4.555,2.32-6.564,3.846
			c-1.889,1.434-3.561,1.703-5.703,0.703c-3.221-1.502-6.539-2.787-9.885-4.191c-2.08,3.652-4.045,7.102-6.037,10.6
			c3.246,2.557,6.311,5.016,9.43,7.408c1.482,1.137,1.838,2.508,1.674,4.342c-0.234,2.654-0.475,5.4-0.051,7.998
			c0.412,2.523-0.346,4.039-2.252,5.457c-2.973,2.211-5.834,4.574-8.811,6.928c2.068,3.605,4.047,7.053,6.066,10.574
			c3.76-1.48,7.354-2.867,10.922-4.316c1.424-0.578,2.555-0.334,3.848,0.52c2.633,1.736,5.361,3.346,8.154,4.812
			c1.365,0.717,2.088,1.543,2.297,3.102c0.494,3.666,1.164,7.309,1.758,10.926c4.238,0,8.271,0,12.398,0
			c0.602-4,1.213-7.875,1.756-11.76c0.236-1.682,1.152-2.598,2.662-3.348c2.514-1.25,4.967-2.666,7.285-4.248
			c1.641-1.117,3.092-1.502,4.981-0.666c3.449,1.533,6.979,2.891,10.596,4.369c2.057-3.588,4.031-7.035,6.061-10.578
			c-3.078-2.43-5.988-4.861-9.047-7.094c-1.809-1.318-2.232-2.865-2.041-5c0.232-2.584,0.283-5.229-0.01-7.799
			c-0.254-2.246,0.215-3.812,2.076-5.174c3.053-2.234,5.963-4.664,9.02-7.08C116.134,120.369,114.161,116.926,112.116,113.361z"/>
		<path fill-rule="evenodd" clip-rule="evenodd" fill="#00ABE5" d="M99.397,87.09c0.545-0.847,0.984-1.876,1.725-2.596
			c1.182-1.149,2.441-2.333,3.887-3.075c3.061-1.573,3.146-4.192,2.824-6.997c-0.066-0.578-0.551-1.222-1.025-1.618
			c-1.904-1.594-3.902-3.075-5.827-4.648c-1.717-1.405-1.926-2.591-0.816-4.513c1.965-3.405,3.946-6.802,5.956-10.182
			c1.135-1.909,2.264-2.279,4.336-1.491c1.545,0.589,3.186,1.031,4.592,1.862c2.588,1.527,4.824,1.05,6.906-0.802
			c0.551-0.491,1.084-1.231,1.211-1.933c0.418-2.305,0.623-4.647,0.951-6.97c0.369-2.59,1.365-3.476,3.965-3.495
			c3.729-0.026,7.457-0.03,11.186-0.001c2.572,0.021,3.525,0.929,3.871,3.557c0.154,1.163,0.443,2.328,0.426,3.489
			c-0.049,3.375,1.307,5.766,4.578,6.847c0.635,0.21,1.461,0.226,2.086,0.008c2.277-0.794,4.516-1.699,6.75-2.61
			c1.852-0.755,3.188-0.255,4.174,1.465c1.885,3.292,3.83,6.549,5.713,9.843c1.281,2.242,0.947,3.729-1.121,5.379
			c-1.727,1.377-3.469,2.733-5.188,4.123c-1.752,1.418-1.725,5.862,0.053,7.293c1.879,1.517,3.773,3.017,5.684,4.495
			c1.631,1.263,1.902,2.692,0.877,4.518c-1.924,3.427-3.73,6.919-5.619,10.366c-1.115,2.034-2.252,2.428-4.457,1.606
			c-1.613-0.604-3.307-1.081-4.795-1.917c-2.275-1.279-4.168-1.002-6.217,0.521c-1.098,0.815-1.721,1.567-1.809,2.965
			c-0.129,2.061-0.498,4.107-0.781,6.156c-0.283,2.057-1.664,3.318-3.787,3.34c-3.936,0.037-7.871,0.025-11.807,0.002
			c-2.357-0.014-3.369-0.881-3.74-3.256c-0.361-2.316-0.525-4.668-0.982-6.965c-0.158-0.791-0.83-1.569-1.447-2.166
			c-2.479-2.392-5.039-1.579-7.832-0.371c-6.664,2.882-6.127,2.849-9.658-3.256c-1.244-2.149-2.521-4.279-3.739-6.443
			C100.1,88.915,99.842,88.127,99.397,87.09z M110.315,94.524c2.471-0.986,4.717-1.848,6.932-2.781
			c1.49-0.629,2.688-0.382,4.018,0.592c1.592,1.166,3.354,2.184,5.18,2.922c1.484,0.601,2.236,1.464,2.439,2.979
			c0.291,2.187,0.566,4.38,0.988,6.542c0.096,0.49,0.748,1.207,1.18,1.236c2.037,0.131,4.086,0.059,6.193,0.059
			c0.428-2.76,0.629-5.329,1.291-7.772c0.312-1.157,1.332-2.318,2.342-3.047c1.66-1.197,3.506-2.208,5.404-2.975
			c1.166-0.472,2.674-0.719,3.85-0.403c2.305,0.619,4.486,1.701,6.854,2.646c1.236-2.177,2.408-4.242,3.602-6.346
			c-1.977-1.608-3.74-3.157-5.625-4.543c-1.582-1.164-2.055-2.573-1.824-4.485c0.195-1.623,0.256-3.326-0.014-4.929
			c-0.334-1.976,0.289-3.321,1.793-4.485c1.9-1.472,3.742-3.019,5.695-4.603c-1.262-2.179-2.447-4.228-3.66-6.32
			c-2.465,0.978-4.709,1.846-6.936,2.759c-1.396,0.572-2.564,0.409-3.859-0.48c-1.738-1.196-3.764-1.98-5.502-3.179
			c-0.904-0.623-1.84-1.661-2.094-2.678c-0.643-2.57-0.904-5.235-1.307-7.774c-2.57,0-4.885,0-7.27,0
			c-0.357,2.456-0.715,4.766-1.025,7.081c-0.236,1.78-1.027,2.995-2.787,3.741c-1.824,0.775-3.434,2.063-5.264,2.816
			c-1.102,0.453-2.531,0.65-3.666,0.368c-1.988-0.494-3.842-1.506-5.801-2.159c-0.455-0.152-1.371,0.087-1.611,0.451
			c-1.119,1.707-2.076,3.521-3.139,5.379c1.887,1.537,3.584,3.057,5.424,4.377c1.646,1.183,2.252,2.594,2.02,4.607
			c-0.197,1.7-0.26,3.48,0.029,5.153c0.33,1.928-0.344,3.172-1.76,4.283c-1.895,1.487-3.742,3.033-5.715,4.638
			C107.894,90.296,109.05,92.315,110.315,94.524z"/>
		<path fill-rule="evenodd" clip-rule="evenodd" fill="#00ABE5" d="M74.723,20.881c-16.988-0.002-33.975-0.012-50.961,0.012
			c-1.746,0.002-3.191-0.351-3.686-2.252c-0.486-1.873,0.607-3.471,2.535-3.763c0.541-0.081,1.102-0.061,1.652-0.061
			c33.697-0.002,67.395,0,101.092,0.001c0.482,0,0.969-0.019,1.449,0.014c2.119,0.14,3.18,1.171,3.15,3.043
			c-0.027,1.806-1.213,2.959-3.238,2.984c-3.729,0.046-7.457,0.021-11.186,0.022C101.929,20.883,88.325,20.882,74.723,20.881z"/>
		<path fill-rule="evenodd" clip-rule="evenodd" fill="#00ABE5" d="M177.952,20.871c-1.312-0.003-2.629,0.062-3.936-0.02
			c-1.695-0.104-2.654-1.079-2.746-2.779c-0.096-1.776,0.713-3.046,2.537-3.146c2.686-0.146,5.387-0.146,8.072-0.022
			c1.797,0.082,2.709,1.276,2.654,3.067c-0.055,1.797-1.053,2.803-2.855,2.892C180.44,20.922,179.194,20.873,177.952,20.871z"/>
		<path fill-rule="evenodd" clip-rule="evenodd" fill="#00ABE5" d="M153.761,20.87c-1.172-0.001-2.344,0.021-3.514-0.006
			c-1.82-0.04-2.787-1.063-2.957-2.808c-0.168-1.737,0.932-3.08,2.781-3.166c2.611-0.119,5.236-0.121,7.846,0.01
			c1.785,0.089,2.727,1.243,2.645,3.05c-0.082,1.788-1.127,2.775-2.877,2.903C156.384,20.948,155.069,20.872,153.761,20.87z"/>
		<path fill-rule="evenodd" clip-rule="evenodd" fill="#00ABE5" d="M56.067,140.473c0-12.348,10.199-22.584,22.529-22.617
			c12.693-0.035,23.034,10.266,22.952,22.861c-0.08,12.355-10.473,22.672-22.815,22.648
			C66.165,163.344,56.063,153.143,56.067,140.473z M95.44,140.291c0.043-9.002-7.512-16.588-16.58-16.652
			c-9.162-0.062-16.605,7.266-16.701,16.445c-0.098,9.209,7.387,16.852,16.525,16.875C87.881,156.982,95.395,149.508,95.44,140.291z
			"/>
		<path fill-rule="evenodd" clip-rule="evenodd" fill="#00ABE5" d="M133.64,90.563c-7.674-0.011-13.932-6.301-13.916-13.981
			c0.016-7.509,6.379-13.877,13.861-13.871c7.615,0.006,14.016,6.375,14.025,13.956C147.62,84.375,141.388,90.575,133.64,90.563z
			 M133.685,68.836c-4.211-0.027-7.854,3.5-7.932,7.682c-0.08,4.216,3.631,8.022,7.844,8.049c4.172,0.025,7.824-3.567,7.887-7.758
			C141.55,72.454,138.04,68.866,133.685,68.836z"/>
	</g>
</g>
</svg>
