<?xml version="1.0" encoding="utf-8"?>
<!-- Generator: Adobe Illustrator 16.0.0, SVG Export Plug-In . SVG Version: 6.00 Build 0)  -->
<!DOCTYPE svg PUBLIC "-//W3C//DTD SVG 1.1//EN" "http://www.w3.org/Graphics/SVG/1.1/DTD/svg11.dtd">
<svg version="1.1" id="Layer_1" xmlns="http://www.w3.org/2000/svg" xmlns:xlink="http://www.w3.org/1999/xlink" x="0px" y="0px"
	 width="200px" height="200px" viewBox="0 0 200 200" enable-background="new 0 0 200 200" xml:space="preserve">
<g id="UIZTs8.tif">
	<g>
		<path fill-rule="evenodd" clip-rule="evenodd" fill="#00ABE5" d="M200,71.851c-10.337,0-20.674,0-31.114,0
			c0-10.51,0-20.763,0-31.274c10.439,0,20.777,0,31.114,0C200,51.001,200,61.426,200,71.851z M175.048,46.848
			c0,6.365,0,12.511,0,18.693c6.278,0,12.423,0,18.593,0c0-6.31,0-12.501,0-18.693C187.372,46.848,181.273,46.848,175.048,46.848z"
			/>
		<path fill-rule="evenodd" clip-rule="evenodd" fill="#00ABE5" d="M200,153.169c-10.337,0-20.675,0-31.114,0
			c0-10.511,0-20.763,0-31.275c10.439,0,20.777,0,31.114,0C200,132.318,200,142.743,200,153.169z M174.995,146.847
			c6.363,0,12.508,0,18.702,0c0-6.273,0-12.419,0-18.597c-6.305,0-12.494,0-18.702,0
			C174.995,134.517,174.995,140.615,174.995,146.847z"/>
		<path fill-rule="evenodd" clip-rule="evenodd" fill="#00ABE5" d="M156.076,46.729c-35.4,0-70.683,0-106.204,0
			c0,2.13,0,4.106,0,6.188c-2.152,0-4.066,0-6.194,0c0-0.848,0-1.61,0-2.373c0.002-9.251-0.001-18.503,0.01-27.754
			c0.008-7.76,5.665-13.422,13.425-13.425c28.601-0.005,57.201-0.006,85.801,0.001c7.494,0.002,13.216,5.712,13.239,13.218
			c0.023,7.491,0.002,14.984-0.004,22.477C156.148,45.567,156.105,46.074,156.076,46.729z M49.852,40.505
			c33.508,0,66.762,0,100.17,0c0-5.788,0.01-11.444-0.003-17.1c-0.013-6.157-1.782-7.917-7.879-7.915
			c-19.414,0.005-38.828,0.001-58.242,0.002c-9.251,0-18.502-0.02-27.754,0.01c-3.648,0.013-6.16,2.011-6.244,5.361
			C49.734,27.363,49.852,33.87,49.852,40.505z"/>
		<path fill-rule="evenodd" clip-rule="evenodd" fill="#00ABE5" d="M43.685,153.27c35.479,0,70.763,0,106.281,0
			c0-2.134,0-4.11,0-6.187c2.149,0,4.064,0,6.107,0c0.03,0.646,0.08,1.215,0.08,1.784c0.003,9.512,0.004,19.023-0.003,28.535
			c-0.008,7.476-5.755,13.231-13.228,13.232c-28.602,0.004-57.201,0.008-85.802-0.001c-7.773-0.003-13.42-5.649-13.433-13.409
			c-0.013-7.297-0.004-14.594-0.004-21.891C43.685,154.7,43.685,154.066,43.685,153.27z M149.97,159.497
			c-33.491,0-66.746,0-100.152,0c0,6.051,0.006,11.969-0.002,17.885c-0.005,5.029,2.088,7.124,7.104,7.124
			c19.154-0.003,38.308,0.002,57.46,0.001c9.772,0,19.545,0.013,29.316-0.019c3.573-0.01,6.13-1.941,6.22-5.157
			C150.1,172.768,149.97,166.196,149.97,159.497z"/>
		<path fill-rule="evenodd" clip-rule="evenodd" fill="#00ABE5" d="M137.383,100.036c-0.021,20.239-17.367,37.503-37.605,37.429
			c-20.159-0.073-37.384-17.382-37.325-37.507c0.059-20.302,17.27-37.433,37.6-37.424
			C120.147,62.542,137.403,79.877,137.383,100.036z M100.049,68.663C82.27,68.631,68.62,82.143,68.58,99.816
			c-0.04,17.806,13.438,31.466,31.104,31.521c17.891,0.056,31.552-13.468,31.571-31.257
			C131.275,82.311,117.749,68.692,100.049,68.663z"/>
		<path fill-rule="evenodd" clip-rule="evenodd" fill="#00ABE5" d="M30.952,46.993c0,10.356,0,20.608,0,30.952
			c-10.354,0-20.605,0-30.95,0c0-10.355,0-20.606,0-30.952C10.356,46.993,20.607,46.993,30.952,46.993z M6.109,71.787
			c6.363,0,12.505,0,18.693,0c0-6.271,0-12.413,0-18.602c-6.306,0-12.493,0-18.693,0C6.109,59.445,6.109,65.542,6.109,71.787z"/>
		<path fill-rule="evenodd" clip-rule="evenodd" fill="#00ABE5" d="M0,159.264c0-10.355,0-20.604,0-30.955c10.351,0,20.6,0,30.952,0
			c0,10.354,0,20.604,0,30.955C20.597,159.264,10.348,159.264,0,159.264z M6.106,153.103c6.362,0,12.508,0,18.702,0
			c0-6.274,0-12.42,0-18.594c-6.301,0-12.491,0-18.702,0C6.106,140.775,6.106,146.873,6.106,153.103z"/>
		<path fill-rule="evenodd" clip-rule="evenodd" fill="#00ABE5" d="M43.781,72.01c2.099,0,3.967,0,5.936,0
			c0,20.775,0,41.448,0,62.228c-2.005,0-3.919,0-5.936,0C43.781,113.471,43.781,92.799,43.781,72.01z"/>
		<path fill-rule="evenodd" clip-rule="evenodd" fill="#00ABE5" d="M156.056,127.987c-2.104,0-3.972,0-5.938,0
			c0-20.776,0-41.448,0-62.227c2.009,0,3.922,0,5.938,0C156.056,86.534,156.056,107.205,156.056,127.987z"/>
		<path fill-rule="evenodd" clip-rule="evenodd" fill="#00ABE5" d="M68.484,140.881c0,1.904,0,3.771,0,5.809
			c-10.271,0-20.563,0-30.96,0c0-1.904,0-3.772,0-5.809C47.794,140.881,58.088,140.881,68.484,140.881z"/>
		<path fill-rule="evenodd" clip-rule="evenodd" fill="#00ABE5" d="M131.356,140.5c0-1.968,0-3.836,0-5.872
			c10.262,0,20.556,0,30.946,0c0,1.946,0,3.86,0,5.872C151.952,140.5,141.704,140.5,131.356,140.5z"/>
		<path fill-rule="evenodd" clip-rule="evenodd" fill="#00ABE5" d="M131.333,59.163c0-2.041,0-3.909,0-5.898
			c10.332,0,20.578,0,30.953,0c0,1.948,0,3.861,0,5.898C152,59.163,141.752,59.163,131.333,59.163z"/>
		<path fill-rule="evenodd" clip-rule="evenodd" fill="#00ABE5" d="M37.523,65.374c0-1.905,0-3.771,0-5.809
			c10.271,0,20.564,0,30.961,0c0,1.905,0,3.772,0,5.809C58.214,65.374,47.921,65.374,37.523,65.374z"/>
		<path fill-rule="evenodd" clip-rule="evenodd" fill="#00ABE5" d="M187.341,53.257c0,2.071,0,3.937,0,5.914
			c-2.002,0-3.912,0-5.935,0c0-1.98,0-3.892,0-5.914C183.382,53.257,185.293,53.257,187.341,53.257z"/>
		<path fill-rule="evenodd" clip-rule="evenodd" fill="#00ABE5" d="M187.342,134.574c0,2.072,0,3.938,0,5.911
			c-1.997,0-3.908,0-5.936,0c0-1.973,0-3.884,0-5.911C183.383,134.574,185.293,134.574,187.342,134.574z"/>
		<path fill-rule="evenodd" clip-rule="evenodd" fill="#00ABE5" d="M96.953,31.035c0-2.015,0-3.928,0-5.939
			c6.185,0,12.263,0,18.438,0c0,2.014,0,3.927,0,5.939C109.211,31.035,103.134,31.035,96.953,31.035z"/>
		<path fill-rule="evenodd" clip-rule="evenodd" fill="#00ABE5" d="M90.402,25.125c0,2.021,0,3.887,0,5.881
			c-1.983,0-3.895,0-5.934,0c0-1.93,0-3.842,0-5.881C86.394,25.125,88.305,25.125,90.402,25.125z"/>
		<path fill-rule="evenodd" clip-rule="evenodd" fill="#00ABE5" d="M109.139,168.965c0,2.012,0,3.925,0,5.938
			c-6.183,0-12.261,0-18.438,0c0-2.009,0-3.922,0-5.938C96.876,168.965,102.955,168.965,109.139,168.965z"/>
		<path fill-rule="evenodd" clip-rule="evenodd" fill="#00ABE5" d="M100,84.035c6.097,0.342,6.111,0.346,5.004,5.971
			c-1.595,8.093-3.207,16.183-4.824,24.271c-0.112,0.562-0.312,1.105-0.516,1.809c-1.905-0.368-3.728-0.721-5.834-1.129
			C95.9,104.586,97.938,94.367,100,84.035z"/>
		<path fill-rule="evenodd" clip-rule="evenodd" fill="#00ABE5" d="M114.396,111.112c-1.191-1.188-2.519-2.513-3.928-3.917
			c2.349-2.247,4.68-4.477,7.037-6.733c-2.673-2.575-5.029-4.846-7.505-7.229c1.93-1.696,3.375-2.965,4.749-4.174
			c3.495,3.519,7.232,7.28,10.842,10.914C122.021,103.526,118.265,107.263,114.396,111.112z"/>
		<path fill-rule="evenodd" clip-rule="evenodd" fill="#00ABE5" d="M82.089,99.727c2.768,2.643,5.104,4.875,7.526,7.19
			c-1.68,1.594-3.077,2.921-4.408,4.182c-3.664-3.682-7.412-7.448-11.034-11.086c3.649-3.637,7.414-7.388,11.25-11.208
			c1.176,1.227,2.477,2.584,4.082,4.259C87.12,95.206,84.681,97.397,82.089,99.727z"/>
		<path fill-rule="evenodd" clip-rule="evenodd" fill="#00ABE5" d="M12.53,59.479c2.036,0,3.901,0,5.887,0c0,1.985,0,3.896,0,5.932
			c-1.941,0-3.853,0-5.887,0C12.53,63.472,12.53,61.561,12.53,59.479z"/>
		<path fill-rule="evenodd" clip-rule="evenodd" fill="#00ABE5" d="M12.519,140.806c2.068,0,3.933,0,5.911,0c0,2,0,3.91,0,5.937
			c-1.974,0-3.883,0-5.911,0C12.519,144.768,12.519,142.857,12.519,140.806z"/>
	</g>
</g>
</svg>
