<?xml version="1.0" encoding="utf-8"?>
<!-- Generator: Adobe Illustrator 16.0.0, SVG Export Plug-In . SVG Version: 6.00 Build 0)  -->
<!DOCTYPE svg PUBLIC "-//W3C//DTD SVG 1.1//EN" "http://www.w3.org/Graphics/SVG/1.1/DTD/svg11.dtd">
<svg version="1.1" id="Layer_1" xmlns="http://www.w3.org/2000/svg" xmlns:xlink="http://www.w3.org/1999/xlink" x="0px" y="0px"
	 width="200px" height="200px" viewBox="0 0 200 200" enable-background="new 0 0 200 200" xml:space="preserve">
<g id="nXpU8a.tif">
	<g>
		<path fill-rule="evenodd" clip-rule="evenodd" fill="#00ABE5" d="M187.553,168.855c2.973,0,5.668,0.005,8.364-0.003
			c1.608-0.004,3.172,0.19,3.849,1.909c0.653,1.659-0.145,2.916-1.339,4.086c-3.615,3.541-7.209,7.106-10.727,10.744
			c-1.319,1.365-2.738,1.951-4.652,1.95C132,187.507,80.952,187.518,29.904,187.52c-4.474,0-8.952,0.104-13.419-0.078
			c-1.25-0.052-2.741-0.661-3.65-1.517c-3.896-3.668-7.593-7.548-11.416-11.296c-1.177-1.152-1.919-2.596-1.02-3.887
			c0.664-0.954,2.192-1.688,3.404-1.804c2.758-0.262,5.559-0.083,8.708-0.083c0-1.053,0-1.971,0-2.889
			c0-34.985,0-69.97,0.001-104.955c0-4.051,0.78-4.817,4.916-4.818c15.035-0.001,30.07,0,45.106,0c0.945,0,1.891,0,3.203,0
			c0-1.031,0-1.878,0-2.726c0-8.287-0.043-16.576,0.009-24.863c0.06-9.578,6.455-16.092,15.968-16.114
			c22.811-0.056,45.621-0.052,68.431,0.008c8.798,0.023,15.388,6.713,15.44,15.514c0.05,8.508,0.02,17.017,0.023,25.524
			c0.001,0.788,0,1.576,0,2.657c2.94,0,5.63,0,8.318,0c3.153,0,6.308-0.017,9.462,0.005c3.195,0.021,4.159,1.007,4.159,4.242
			c0.004,34.618,0.003,69.237,0.004,103.855C187.553,165.682,187.553,167.067,187.553,168.855z M181.503,168.854
			c0-1.349,0-2.293,0-3.238c0-24.131,0.001-48.261,0-72.391c0-9.608,0.001-19.216-0.018-28.824
			c-0.003-0.951,0.372-2.175-1.337-2.164c-4.4,0.028-8.802-0.028-13.2,0.066c-0.467,0.01-1.237,0.737-1.328,1.23
			c-1.802,9.782-7.389,14.461-17.309,14.444c-10.855-0.019-21.711-0.054-32.564,0.047c-1.346,0.013-2.878,0.525-3.992,1.291
			c-6.041,4.151-11.978,8.455-17.95,12.706c-0.299,0.213-0.572,0.555-0.898,0.617c-1.228,0.232-2.684,0.843-3.646,0.407
			c-0.82-0.371-1.467-1.966-1.516-3.049c-0.177-3.93-0.069-7.87-0.069-12.119c-11.931,1.056-20.491-2.437-22.192-15.435
			c-15.639,0-31.204,0-46.786,0c0,35.526,0,70.848,0,106.304c0.845,0.039,1.56,0.102,2.276,0.102
			c18.042,0.005,36.088,0.186,54.126-0.114c5.161-0.086,9.268,0.844,12.461,5.084c0.607,0.808,2.113,1.28,3.221,1.311
			c4.91,0.134,9.844-0.204,14.735,0.125c4.051,0.271,7.301-0.559,9.701-3.996c1.38-1.975,3.365-2.464,5.759-2.454
			c19.289,0.078,38.579,0.048,57.868,0.05C179.634,168.854,180.422,168.854,181.503,168.854z M93.714,84.638
			c5.654-4.044,10.724-7.771,15.921-11.31c1.181-0.804,2.8-1.342,4.222-1.354c11.953-0.105,23.907-0.033,35.86-0.073
			c5.686-0.02,9.794-4.044,9.817-9.643c0.049-11.366,0.049-22.734,0-34.101c-0.023-5.584-4.005-9.608-9.558-9.617
			c-22.881-0.036-45.761-0.037-68.642,0.002c-5.522,0.009-9.519,4.11-9.533,9.656c-0.031,11.294-0.028,22.587-0.002,33.881
			c0.014,5.633,4.051,9.721,9.661,9.824c2.713,0.05,5.427,0.002,8.141,0.013c3.093,0.014,4.08,0.978,4.107,4.052
			C93.732,78.66,93.714,81.353,93.714,84.638z M113.67,181.453c1.182,0,1.903,0,2.624,0c21.344,0.003,42.688,0.006,64.03,0.012
			c2.95,0,7.572-3.465,8.573-6.438c-0.142-0.034-0.283-0.099-0.425-0.099c-22.369-0.011-44.739-0.022-67.109,0.009
			c-0.66,0.001-1.479,0.288-1.952,0.733C117.555,177.415,115.809,179.277,113.67,181.453z M86.38,181.464
			c-1.718-1.773-3.179-3.109-4.431-4.619c-1.295-1.562-2.822-1.987-4.805-1.981c-21.416,0.06-42.832,0.034-64.248,0.041
			c-0.62,0-1.239,0.095-1.859,0.145c-0.185,0.252-0.37,0.503-0.556,0.754c1.649,1.414,3.221,2.936,4.978,4.199
			c0.982,0.706,2.271,1.387,3.425,1.393c16.941,0.091,33.884,0.066,50.827,0.069C75.122,181.465,80.534,181.464,86.38,181.464z"/>
		<path fill-rule="evenodd" clip-rule="evenodd" fill="#00ABE5" d="M59.265,118.549c-10.403-0.03-18.602-8.321-18.587-18.797
			c0.015-10.03,8.464-18.471,18.529-18.511c10.429-0.041,18.83,8.413,18.776,18.894C77.931,110.402,69.618,118.579,59.265,118.549z
			 M59.45,112.507c6.949-0.042,12.506-5.655,12.487-12.616C71.92,92.942,66.064,87.186,59.13,87.3
			c-6.733,0.109-12.407,5.869-12.395,12.581C46.749,106.947,52.39,112.55,59.45,112.507z"/>
		<path fill-rule="evenodd" clip-rule="evenodd" fill="#00ABE5" d="M31.377,139.76c0.204-7.625,6.696-14.404,14.317-14.55
			c9.08-0.175,18.168-0.168,27.248-0.005c7.766,0.14,14.395,7.189,14.413,14.94c0.005,1.845-0.663,3.157-2.626,3.429
			c-1.809,0.25-3.011-0.837-3.378-2.939c-1.22-6.992-4.179-9.453-11.318-9.446c-7.398,0.007-14.797-0.015-22.196-0.003
			c-6.185,0.01-9.663,3.083-10.445,9.184c-0.286,2.229-1.495,3.379-3.378,3.213C32.163,143.418,31.312,142.185,31.377,139.76z"/>
		<path fill-rule="evenodd" clip-rule="evenodd" fill="#00ABE5" d="M146.686,109.23c-5.855,0-11.711,0.007-17.565-0.004
			c-2.555-0.004-3.972-1.132-3.933-3.078c0.038-1.85,1.438-2.958,3.836-2.961c11.93-0.01,23.86-0.009,35.79-0.001
			c2.646,0.002,3.918,1.032,3.883,3.078c-0.034,2.008-1.301,2.958-4.006,2.963C158.689,109.236,152.688,109.23,146.686,109.23z"/>
		<path fill-rule="evenodd" clip-rule="evenodd" fill="#00ABE5" d="M146.877,128.245c6.001,0,12.003-0.008,18.004,0.004
			c2.548,0.005,3.772,0.958,3.815,2.905c0.046,2.03-1.265,3.133-3.858,3.137c-12.003,0.016-24.006,0.018-36.009,0.004
			c-2.185-0.003-3.584-1.188-3.642-2.959c-0.061-1.903,1.304-3.077,3.685-3.084C134.874,128.234,140.875,128.245,146.877,128.245z"
			/>
		<path fill-rule="evenodd" clip-rule="evenodd" fill="#00ABE5" d="M146.925,121.717c-5.94,0.001-11.881,0.018-17.82-0.008
			c-2.555-0.011-3.853-1.002-3.92-2.865c-0.068-1.942,1.351-3.172,3.897-3.177c11.953-0.025,23.906-0.026,35.859,0.002
			c2.496,0.006,3.747,1.099,3.761,3.047c0.015,1.975-1.188,2.98-3.738,2.991C158.951,121.733,152.938,121.716,146.925,121.717z"/>
		<path fill-rule="evenodd" clip-rule="evenodd" fill="#00ABE5" d="M147.14,90.711c6.161,0,12.321-0.024,18.481,0.016
			c1.895,0.012,3.055,1.016,3.073,2.98c0.018,1.869-1.148,2.755-2.874,3.001c-0.577,0.082-1.172,0.042-1.758,0.042
			c-10.121,0.001-20.242,0-30.362-0.002c-1.688,0-3.377,0.055-5.06-0.024c-2.228-0.105-3.534-1.351-3.463-3.156
			c0.069-1.744,1.326-2.784,3.481-2.877c0.219-0.009,0.439-0.001,0.66-0.001c5.939,0,11.881,0,17.82,0
			C147.14,90.697,147.14,90.704,147.14,90.711z"/>
		<path fill-rule="evenodd" clip-rule="evenodd" fill="#00ABE5" d="M112.687,112.592c-0.001-5.939-0.016-11.878,0.005-17.817
			c0.01-2.741,0.961-4.003,2.933-4.035c1.998-0.032,3.098,1.278,3.103,3.915c0.022,11.878,0.011,23.757,0.009,35.635
			c-0.001,1.527-0.185,3.123-1.863,3.605c-0.913,0.263-2.35,0.162-2.974-0.407c-0.731-0.668-1.143-2.017-1.161-3.08
			C112.632,124.471,112.687,118.53,112.687,112.592z"/>
		<path fill-rule="evenodd" clip-rule="evenodd" fill="#00ABE5" d="M78.075,156.339c-2.152,0-4.092,0-6.297,0
			c0,1.114,0.07,2.121-0.015,3.114c-0.153,1.789-1.578,3.162-3.166,2.971c-1.727-0.207-2.807-1.202-2.843-3.036
			c-0.04-2.048-0.06-4.098-0.008-6.145c0.049-1.91,1.091-3.026,3.009-3.05c4.169-0.051,8.34-0.039,12.509,0.016
			c1.808,0.023,2.875,1.026,2.932,2.864c0.064,2.119,0.042,4.242,0.015,6.364c-0.023,1.732-1.026,2.788-2.653,2.959
			c-1.778,0.188-2.929-0.85-3.263-2.576C78.089,158.759,78.147,157.646,78.075,156.339z"/>
		<path fill-rule="evenodd" clip-rule="evenodd" fill="#00ABE5" d="M128.276,156.334c-2.224,0-4.164,0-6.417,0
			c0,1.104,0.094,2.111-0.021,3.094c-0.212,1.828-1.256,3.063-3.151,2.973c-1.872-0.089-2.842-1.314-2.843-3.226
			c-0.002-1.901-0.046-3.804,0.008-5.703c0.062-2.237,1.009-3.24,3.208-3.272c4.021-0.06,8.042-0.067,12.062-0.006
			c2.138,0.032,3.142,1.128,3.196,3.313c0.046,1.9,0.012,3.802-0.002,5.703c-0.015,1.921-1.05,3.019-2.897,3.214
			c-1.663,0.176-3.028-1.295-3.136-3.227C128.236,158.328,128.276,157.455,128.276,156.334z"/>
		<path fill-rule="evenodd" clip-rule="evenodd" fill="#00ABE5" d="M103.224,156.313c-2.262,0-4.15,0-6.396,0
			c0,1.08,0.071,2.078-0.015,3.063c-0.161,1.838-1.52,3.208-3.118,3.049c-1.863-0.187-2.891-1.278-2.895-3.216
			c-0.004-1.907-0.049-3.815,0-5.721c0.057-2.215,1.034-3.266,3.217-3.297c4.032-0.06,8.067-0.053,12.101,0.01
			c2.067,0.032,3.09,1.091,3.146,3.137c0.054,1.979,0.046,3.962-0.013,5.94c-0.057,1.864-1.322,3.241-2.951,3.146
			c-1.894-0.109-2.901-1.266-3.061-3.116C103.157,158.379,103.224,157.436,103.224,156.313z"/>
		<path fill-rule="evenodd" clip-rule="evenodd" fill="#00ABE5" d="M40.661,74.824c-1.562,0.055-2.972-1.247-3.071-2.838
			c-0.108-1.725,1.173-3.124,2.9-3.166c1.63-0.039,3.002,1.182,3.114,2.771C43.719,73.205,42.296,74.768,40.661,74.824z"/>
		<path fill-rule="evenodd" clip-rule="evenodd" fill="#00ABE5" d="M52.82,74.816c-1.626-0.173-3.046-1.848-2.727-3.396
			c0.351-1.698,1.396-2.715,3.247-2.6c1.715,0.107,2.868,1.565,2.679,3.337C55.852,73.736,54.354,74.979,52.82,74.816z"/>
		<path fill-rule="evenodd" clip-rule="evenodd" fill="#00ABE5" d="M31.007,71.887c-0.037,1.6-1.384,2.952-2.938,2.95
			c-1.622-0.003-3.052-1.495-3.013-3.147c0.039-1.629,1.325-2.873,2.974-2.874C29.79,68.814,31.048,70.111,31.007,71.887z"/>
		<path fill-rule="evenodd" clip-rule="evenodd" fill="#00ABE5" d="M115.59,52.893c-5.017-0.034-9.213-4.271-9.22-9.306
			c-0.007-5.024,4.218-9.209,9.285-9.195c5.189,0.013,9.447,4.288,9.333,9.372C124.876,48.799,120.626,52.927,115.59,52.893z
			 M115.663,40.454c-1.761,0.002-3.23,1.466-3.204,3.191c0.026,1.731,1.526,3.208,3.244,3.193c1.701-0.014,3.227-1.542,3.224-3.229
			C118.924,41.911,117.416,40.453,115.663,40.454z"/>
		<path fill-rule="evenodd" clip-rule="evenodd" fill="#00ABE5" d="M140.88,34.382c5.083,0.106,9.272,4.392,9.143,9.349
			c-0.135,5.165-4.436,9.273-9.588,9.161c-4.97-0.109-9.184-4.534-9.038-9.49C131.545,38.351,135.829,34.275,140.88,34.382z
			 M140.655,46.838c1.707,0.035,3.251-1.441,3.293-3.15c0.043-1.708-1.429-3.208-3.179-3.242c-1.73-0.032-3.277,1.428-3.304,3.12
			C137.44,45.233,138.97,46.803,140.655,46.838z"/>
		<path fill-rule="evenodd" clip-rule="evenodd" fill="#00ABE5" d="M90.592,34.393c5.081-0.024,9.291,4.08,9.358,9.123
			c0.067,5.096-4.228,9.398-9.359,9.378c-5.049-0.021-9.205-4.211-9.2-9.276C81.396,38.486,85.453,34.418,90.592,34.393z
			 M87.456,43.537c-0.057,1.733,1.369,3.253,3.096,3.302c1.679,0.047,3.261-1.435,3.328-3.117c0.067-1.71-1.379-3.218-3.13-3.26
			C88.955,40.418,87.514,41.763,87.456,43.537z"/>
	</g>
</g>
</svg>
