<?xml version="1.0" encoding="utf-8"?>
<!-- Generator: Adobe Illustrator 16.0.0, SVG Export Plug-In . SVG Version: 6.00 Build 0)  -->
<!DOCTYPE svg PUBLIC "-//W3C//DTD SVG 1.1//EN" "http://www.w3.org/Graphics/SVG/1.1/DTD/svg11.dtd">
<svg version="1.1" id="Layer_1" xmlns="http://www.w3.org/2000/svg" xmlns:xlink="http://www.w3.org/1999/xlink" x="0px" y="0px"
	 width="200px" height="200px" viewBox="0 0 200 200" enable-background="new 0 0 200 200" xml:space="preserve">
<g id="jXPzdy.tif">
	<g>
		<path fill-rule="evenodd" clip-rule="evenodd" fill="#00ABE5" d="M145.256,180.217c-2.132,0.005-4.264,0.01-6.396,0.016
			c-0.715-0.006-1.43-0.011-2.145-0.016c-2.132,0.005-4.264,0.01-6.396,0.016c-0.715-0.006-1.43-0.011-2.145-0.016
			c-2.132,0.005-4.264,0.01-6.396,0.016c-0.715-0.006-1.43-0.011-2.145-0.016c-2.132,0.005-4.264,0.01-6.396,0.016
			c-0.715-0.006-1.429-0.011-2.144-0.016c-2.133,0.005-4.265,0.01-6.396,0.016c-0.715-0.006-1.43-0.011-2.144-0.016
			c-2.133,0.005-4.265,0.01-6.396,0.016c-0.715-0.006-1.43-0.011-2.145-0.016c-2.132,0.005-4.264,0.01-6.396,0.016
			c-0.715-0.006-1.43-0.011-2.144-0.016c-2.133,0.005-4.264,0.01-6.396,0.016c-0.715-0.006-1.43-0.011-2.145-0.016
			c-2.132,0.005-4.264,0.01-6.396,0.016c-0.714-0.006-1.429-0.011-2.144-0.016c-2.132,0.005-4.264,0.01-6.396,0.016
			c-0.715-0.006-1.43-0.011-2.145-0.016c-2.132,0.005-4.264,0.01-6.396,0.016c-0.714-0.006-1.429-0.011-2.144-0.016
			c-2.132,0.005-4.264,0.01-6.396,0.016c-0.715-0.006-1.43-0.011-2.145-0.016c-2.132,0.005-4.264,0.01-6.395,0.016
			c-0.716-0.006-1.431-0.011-2.146-0.016c-2.132,0.005-4.264,0.01-6.396,0.016c-0.715-0.006-1.43-0.011-2.145-0.016
			c-2.132,0.005-4.264,0.01-6.396,0.016c-0.715-0.006-1.43-0.011-2.145-0.016c-1.856-0.04-3.683-0.309-5.486-0.741
			c-0.335-0.108-0.671-0.217-1.005-0.324c-1.387-0.809-2.773-1.616-4.16-2.425c-0.441-0.403-0.885-0.808-1.327-1.211
			c-0.95-1.24-1.899-2.481-2.849-3.723c-0.166-0.603-0.334-1.205-0.926-1.555c-0.329-1.248-0.657-2.495-0.985-3.743
			c-0.129-0.715-0.258-1.43-0.387-2.145c-0.005-2.133-0.01-4.266-0.015-6.398c-0.006-0.715-0.011-1.43-0.016-2.145
			c0.041-2.121,0.08-4.241,0.121-6.362l-0.014,0.013c2.124-0.043,4.248-0.086,6.372-0.129c0.715,0.005,1.43,0.01,2.145,0.015
			c5.306,0.251,5.306,0.251,5.056-5.055c-0.006-0.715-0.01-1.43-0.016-2.145c0.005-2.132,0.01-4.265,0.016-6.396
			c-0.006-0.714-0.011-1.429-0.016-2.144c0.005-2.132,0.01-4.265,0.016-6.396c-0.006-0.714-0.011-1.429-0.016-2.144
			c0.005-2.132,0.01-4.265,0.016-6.396c-0.006-0.715-0.011-1.429-0.016-2.144c0.005-2.132,0.01-4.265,0.016-6.396
			c-0.006-0.715-0.011-1.429-0.016-2.144c0.005-2.132,0.01-4.265,0.016-6.396c-0.006-0.715-0.011-1.43-0.016-2.144
			c0.005-2.132,0.01-4.265,0.016-6.396c-0.006-0.715-0.011-1.429-0.016-2.144c0.005-2.133,0.01-4.265,0.016-6.396
			c-0.006-0.715-0.011-1.43-0.016-2.145c0.005-2.131,0.01-4.264,0.016-6.396c-0.006-0.715-0.011-1.43-0.016-2.145
			c0.005-2.132,0.01-4.264,0.016-6.396c-0.006-0.715-0.011-1.43-0.016-2.145c0.005-2.132,0.01-14.264,0.016-16.396
			c-0.006-0.715-0.011-1.43-0.016-2.144c0.005-2.133,0.01-4.265,0.016-6.396c-0.006-0.715-0.011-1.43-0.016-2.144
			c0.027-2.478,0.354-4.909,1.105-7.276c0.967-1.688,1.934-3.378,2.901-5.067c0.695-0.694,1.39-1.39,2.087-2.085
			c1.688-0.968,3.377-1.936,5.066-2.904c2.367-0.747,4.799-1.076,7.275-1.104c0.715,0.005,1.43,0.011,2.145,0.016
			c2.132-0.005,4.264-0.011,6.395-0.016c0.715,0.005,1.431,0.011,2.146,0.016c2.132-0.005,4.264-0.011,6.396-0.016
			c0.715,0.005,1.43,0.011,2.145,0.016c2.132-0.005,4.264-0.011,6.396-0.016c0.715,0.005,1.429,0.011,2.144,0.016
			c2.133-0.005,4.265-0.011,6.396-0.016c0.715,0.005,1.43,0.011,2.145,0.016c2.132-0.005,4.264-0.011,6.396-0.016
			c0.715,0.005,1.43,0.011,2.144,0.016c2.133-0.005,4.264-0.011,6.396-0.016c0.715,0.005,1.43,0.011,2.145,0.016
			c2.132-0.005,4.264-0.011,6.396-0.016c0.715,0.005,1.43,0.011,2.144,0.016c2.133-0.005,4.264-0.011,6.396-0.016
			c0.715,0.005,1.43,0.011,2.145,0.016c2.132-0.005,4.264-0.011,6.396-0.016c0.714,0.005,1.429,0.011,2.144,0.016
			c2.132-0.005,4.264-0.011,6.396-0.016c0.715,0.005,1.43,0.011,2.145,0.016c2.132-0.005,4.264-0.011,6.396-0.016
			c0.715,0.005,1.43,0.011,2.145,0.016c2.132-0.005,4.264-0.011,6.396-0.016c0.715,0.005,1.43,0.011,2.145,0.016
			c2.132-0.005,4.264-0.011,6.396-0.016c0.715,0.005,1.43,0.011,2.145,0.016c2.132-0.005,4.264-0.011,6.396-0.016
			c0.715,0.005,1.43,0.011,2.145,0.016c2.132-0.005,4.264-0.011,6.396-0.016c0.715,0.005,1.43,0.011,2.145,0.016
			c2.132-0.005,4.264-0.011,6.396-0.016c0.714,0.02,1.427,0.038,2.142,0.058c1.706,0.437,3.413,0.873,5.121,1.31
			c0.431,0.24,0.861,0.481,1.292,0.723c1.111,0.766,2.222,1.531,3.332,2.297c0.439,0.439,0.879,0.879,1.318,1.318
			c0.766,1.11,1.53,2.221,2.296,3.331c0.241,0.432,0.482,0.862,0.723,1.293c0.437,1.707,0.873,3.414,1.31,5.121
			c0.019,0.714,0.038,1.428,0.059,2.142c-0.006,2.132-0.011,4.264-0.016,6.396c0.005,0.715,0.01,1.43,0.016,2.145
			c-0.006,2.132-0.011,14.264-0.016,16.396c0.005,0.715,0.01,1.43,0.016,2.145c-0.006,2.132-0.011,4.264-0.016,6.396
			c0.005,0.715,0.01,1.43,0.016,2.145c-0.006,2.132-0.011,4.264-0.016,6.396c0.005,0.715,0.01,1.43,0.016,2.145
			c-0.006,2.132-0.011,4.264-0.016,6.396c0.005,0.715,0.01,1.43,0.016,2.145c-0.006,2.132-0.011,4.263-0.016,6.396
			c0.005,0.715,0.01,1.43,0.016,2.145c-0.006,2.132-0.011,4.263-0.016,6.395c0.005,0.715,0.01,1.431,0.016,2.146
			c-0.006,2.131-0.011,4.263-0.016,6.395c0.005,0.715,0.01,1.43,0.016,2.145c-0.006,2.132-0.011,4.265-0.016,6.396
			c0.005,0.714,0.01,1.429,0.016,2.144c-0.006,2.133-0.011,4.265-0.016,6.396c0.005,0.714,0.01,1.429,0.016,2.144
			c-0.006,2.133-0.011,4.265-0.016,6.396c0.005,0.715,0.01,1.429,0.016,2.144c-0.006,2.133-0.011,4.265-0.016,6.396
			c-0.355,1.453,0.194,2.003,1.647,1.647c2.132-0.005,4.264-0.01,6.396-0.015c0.715,0.005,1.429,0.01,2.144,0.015
			c0.545,0.021,1.106,0.139,1.631,0.046c1.433-0.254,1.977,0.349,1.846,1.723c0.005,0.715,0.01,1.43,0.016,2.145
			c-0.006,2.131-0.011,4.263-0.016,6.396c0.005,0.715,0.01,1.43,0.016,2.145c-0.003,2.639-0.553,5.181-1.349,7.68
			c-1.017,1.943-2.234,3.755-3.563,5.495c-0.116,0.116-0.232,0.232-0.349,0.349c-1.835,1.457-3.715,2.845-5.89,3.772
			c-2.358,0.83-4.804,1.101-7.286,1.14c-0.715-0.006-1.429-0.011-2.144-0.016c-2.133,0.005-4.264,0.01-6.396,0.016
			c-0.715-0.006-1.429-0.011-2.144-0.016c-2.133,0.005-4.264,0.01-6.396,0.016c-0.715-0.006-1.43-0.011-2.144-0.016
			c-2.133,0.005-4.264,0.01-6.396,0.016c-0.715-0.006-1.43-0.011-2.144-0.016c-2.133,0.005-4.265,0.01-6.396,0.016
			C146.686,180.227,145.971,180.222,145.256,180.217z M7.09,164.451c0.131,0.707,0.135,1.453,0.605,2.062
			c0.292,1.533,1.084,2.773,2.227,3.811c0.404,0.63,0.898,1.152,1.649,1.363c1.491,1.271,3.231,1.722,5.155,1.555
			c0.716,0.005,1.431,0.01,2.146,0.015c2.132-0.005,4.263-0.01,6.396-0.016c0.715,0.006,1.43,0.011,2.145,0.016
			c2.132-0.005,4.264-0.01,6.396-0.016c0.715,0.006,1.43,0.011,2.145,0.016c2.132-0.005,4.263-0.01,6.396-0.016
			c0.715,0.006,1.43,0.011,2.145,0.016c2.132-0.005,4.264-0.01,6.396-0.016c0.715,0.006,1.43,0.011,2.145,0.016
			c2.132-0.004,4.263-0.01,6.395-0.014c0.716,0.005,1.431,0.01,2.146,0.016c2.132-0.005,4.264-0.011,6.395-0.016
			c0.716,0.005,1.432,0.01,2.146,0.016c2.131-0.006,4.264-0.012,6.395-0.017c0.715,0.005,1.43,0.01,2.145,0.015
			c2.132-0.005,4.264-0.01,6.396-0.016c0.715,0.006,1.429,0.011,2.145,0.016c2.132-0.005,4.264-0.01,6.396-0.016
			c0.715,0.006,1.43,0.011,2.145,0.016c2.132-0.005,4.264-0.01,6.396-0.016c0.715,0.006,1.43,0.011,2.145,0.016
			c2.132-0.005,4.264-0.01,6.396-0.016c0.715,0.006,1.43,0.012,2.145,0.017c2.132-0.005,4.264-0.01,6.396-0.015
			c0.715,0.005,1.431,0.01,2.146,0.015c2.132-0.005,4.264-0.011,6.395-0.017c0.715,0.006,1.43,0.011,2.146,0.016
			c2.131-0.005,4.263-0.01,6.396-0.016c0.714,0.006,1.429,0.011,2.145,0.016c2.131-0.005,4.263-0.01,6.396-0.016
			c0.714,0.006,1.429,0.011,2.145,0.016c2.131-0.005,4.263-0.01,6.395-0.016c0.715,0.006,1.43,0.011,2.145,0.016
			c2.132-0.005,4.264-0.01,6.396-0.016c0.715,0.006,1.43,0.011,2.145,0.016c2.132-0.005,4.264-0.01,6.396-0.016
			c0.715,0.006,1.43,0.011,2.145,0.016c2.132-0.005,4.264-0.01,6.396-0.016c0.715,0.006,1.429,0.012,2.144,0.018
			c7.556,0.363,12.249-4.329,11.891-11.891c-0.006-0.714-0.012-1.429-0.018-2.143c0.177-2.991,0.177-2.996-2.701-2.98
			c-0.637,0.003-1.273,0.05-1.911,0.076c-0.715-0.006-1.43-0.011-2.145-0.016c-2.132,0.005-4.264,0.01-6.396,0.016
			c-0.715-0.006-1.43-0.011-2.145-0.016c-2.132,0.005-4.264,0.01-6.396,0.016c-0.715-0.006-1.43-0.011-2.145-0.016
			c-2.132,0.005-4.264,0.01-6.396,0.016c-0.715-0.006-1.429-0.011-2.145-0.016c-2.132,0.005-4.264,0.01-6.396,0.016
			c-0.715-0.006-1.429-0.011-2.145-0.016c-2.132,0.005-4.264,0.01-6.396,0.016c-0.715-0.006-1.429-0.011-2.145-0.016
			c-2.132,0.004-4.263,0.01-6.395,0.014c-0.774-0.03-1.548-0.051-2.321-0.093c-0.811-0.044-1.44,0.012-1.732,1.026
			c-1.143,3.973-3.782,6.656-7.48,8.369c-2.365,0.718-4.801,0.906-7.255,0.946c-0.715-0.005-1.43-0.01-2.145-0.015
			c-2.132,0.005-4.264,0.01-6.396,0.016c-0.715-0.006-1.43-0.011-2.145-0.016c-2.132,0.005-4.263,0.01-6.396,0.016
			c-0.715-0.006-1.43-0.011-2.146-0.016c-2.131,0.005-4.262,0.01-6.395,0.016c-0.715-0.006-1.43-0.011-2.145-0.016
			c-2.132,0.005-4.264,0.01-6.396,0.015c-0.714-0.005-1.429-0.01-2.145-0.016c-1.846-0.169-3.693-0.338-5.541-0.507
			c-0.574-0.244-1.147-0.489-1.721-0.733c-1.146-0.741-2.293-1.483-3.439-2.225c-0.41-0.442-0.822-0.885-1.232-1.328
			c-0.659-1.151-1.318-2.303-1.978-3.453c-0.374-0.749,0.067-2.094-1.46-2.001c-2.132,0.005-4.264,0.01-6.396,0.016
			c-0.715-0.006-1.43-0.011-2.145-0.016c-2.132,0.005-4.263,0.01-6.396,0.016c-0.715-0.006-1.43-0.011-2.145-0.016
			c-2.133,0.005-4.264,0.01-6.396,0.016c-0.715-0.006-1.43-0.011-2.146-0.016c-2.131,0.005-4.263,0.01-6.395,0.016
			c-0.715-0.006-1.43-0.011-2.145-0.017c-2.132,0.005-4.264,0.01-6.395,0.015c-0.716-0.005-1.432-0.01-2.146-0.016
			c-2.131,0.006-4.264,0.012-6.395,0.017c-0.715-0.005-1.43-0.011-2.145-0.016c-2.398-0.018-4.797-0.028-7.194-0.055
			c-0.728-0.008-1.407-0.097-1.345,1.025C7.042,159.663,6.701,162.066,7.09,164.451z M170.885,149.345
			c2.412,0.018,4.826-0.011,7.235,0.073c1.025,0.035,1.346-0.285,1.31-1.311c-0.083-2.409-0.056-4.823-0.072-7.234
			c-0.006-0.715-0.011-1.43-0.017-2.146c0.006-2.132,0.011-4.263,0.016-6.395c-0.005-0.715-0.01-1.43-0.015-2.145
			c0.005-2.133,0.01-4.264,0.015-6.396c-0.005-0.715-0.01-1.43-0.016-2.145c0.006-2.133,0.011-4.264,0.016-6.396
			c-0.005-0.715-0.01-1.43-0.016-2.145c0.006-2.133,0.011-4.264,0.016-6.396c-0.005-0.715-0.01-1.43-0.015-2.145
			c0.005-2.133,0.01-4.264,0.015-6.396c-0.005-0.715-0.01-1.43-0.016-2.145c0.006-2.133,0.011-4.264,0.016-6.396
			c-0.005-0.716-0.01-1.43-0.016-2.146c0.006-2.132,0.011-4.264,0.016-6.396c-0.005-0.714-0.01-1.429-0.015-2.145
			c0.005-2.132,0.01-4.264,0.015-6.396c-0.005-0.714-0.01-1.43-0.016-2.145c0.006-2.132,0.011-4.264,0.016-6.396
			c-0.005-0.715-0.01-1.43-0.016-2.145c0.006-2.132,0.011-14.264,0.016-16.396c-0.005-0.715-0.01-1.43-0.016-2.145
			c0.006-2.132,0.011-4.263,0.017-6.395c0.054-0.742,0.181-1.496-0.33-2.151c-0.19-1.681-0.879-3.116-2.103-4.291
			c-0.262-0.614-0.699-1.052-1.314-1.312c-1.174-1.226-2.609-1.917-4.292-2.106c-0.656-0.508-1.408-0.383-2.15-0.328
			c-2.132,0.005-4.264,0.011-6.396,0.016c-0.715-0.005-1.429-0.01-2.145-0.016c-2.132,0.006-4.264,0.011-6.396,0.016
			c-0.715-0.005-1.429-0.01-2.145-0.016c-2.132,0.006-4.264,0.011-6.396,0.016c-0.715-0.005-1.429-0.01-2.145-0.016
			c-2.132,0.006-4.263,0.011-6.396,0.016c-0.715-0.005-1.43-0.01-2.145-0.016c-2.132,0.006-4.263,0.011-6.396,0.016
			c-0.715-0.005-1.43-0.01-2.145-0.016c-2.132,0.006-4.264,0.011-6.396,0.016c-0.715-0.005-1.43-0.01-2.145-0.016
			c-2.132,0.006-4.264,0.011-6.396,0.016c-0.715-0.005-1.43-0.01-2.145-0.016c-2.132,0.006-4.264,0.011-6.396,0.016
			c-0.715-0.005-1.43-0.01-2.145-0.016c-2.132,0.006-4.264,0.011-6.396,0.016c-0.715-0.005-1.43-0.01-2.145-0.016
			c-2.132,0.006-4.264,0.011-6.396,0.016c-0.715-0.005-1.43-0.01-2.145-0.016c-2.132,0.006-4.264,0.011-6.396,0.016
			c-0.715-0.005-1.43-0.01-2.145-0.016c-2.132,0.006-4.264,0.011-6.396,0.016c-0.715-0.005-1.43-0.01-2.145-0.016
			c-2.132,0.006-4.264,0.011-6.396,0.016c-0.715-0.005-1.43-0.01-2.145-0.016c-2.132,0.006-4.263,0.011-6.396,0.016
			c-0.715-0.005-1.43-0.01-2.145-0.016c-2.133,0.006-4.264,0.011-6.396,0.016c-0.715-0.005-1.43-0.01-2.146-0.016
			c-2.131,0.006-4.263,0.011-6.395,0.016c-0.715-0.006-1.429-0.012-2.144-0.018c-7.644-0.365-12.257,4.247-11.891,11.892
			c0.006,0.714,0.011,1.429,0.017,2.143c-0.004,2.132-0.01,4.264-0.015,6.396c0.005,0.715,0.011,1.43,0.015,2.145
			c-0.004,2.132-0.01,14.264-0.015,16.396c0.005,0.715,0.011,1.43,0.015,2.145c-0.004,2.132-0.01,4.264-0.015,6.396
			c0.005,0.715,0.011,1.43,0.015,2.145c-0.004,2.132-0.01,4.264-0.015,6.396c0.005,0.715,0.011,1.43,0.015,2.145
			c-0.004,2.133-0.01,4.265-0.015,6.396c0.005,0.716,0.011,1.431,0.015,2.145c-0.004,2.132-0.01,4.265-0.015,6.396
			c0.005,0.716,0.011,1.431,0.015,2.145c-0.004,2.133-0.01,4.265-0.015,6.396c0.005,0.716,0.011,1.431,0.015,2.146
			c-0.004,2.132-0.01,4.264-0.015,6.396c0.005,0.715,0.011,1.43,0.015,2.145c-0.004,2.132-0.01,4.263-0.015,6.396
			c0.005,0.715,0.011,1.43,0.015,2.145c-0.004,2.132-0.01,4.263-0.015,6.396c0.005,0.715,0.011,1.43,0.015,2.145
			c-0.004,2.132-0.01,4.263-0.015,6.396c0.005,0.715,0.011,1.43,0.015,2.145c-0.025,0.637-0.071,1.273-0.075,1.91
			c-0.015,2.878-0.011,2.878,2.98,2.702c0.715,0.005,1.43,0.01,2.146,0.015c2.131-0.005,4.263-0.01,6.395-0.015
			c0.715,0.005,1.43,0.01,2.145,0.015c2.132-0.005,4.264-0.01,6.395-0.015c0.715,0.005,1.431,0.01,2.146,0.015
			c2.132-0.005,4.264-0.01,6.396-0.015c0.715,0.005,1.43,0.01,2.145,0.015c2.132-0.005,4.264-0.01,6.396-0.015
			c0.715,0.005,1.429,0.01,2.145,0.015c2.132-0.005,4.264-0.01,6.396-0.015c0.715,0.005,1.43,0.01,2.145,0.015
			c1.688,0.03,3.375,0.059,5.062,0.088c0.046,0.705,0.092,1.411,0.137,2.116c-0.264,1.94,0.074,3.716,1.433,5.21
			c0.321,0.6,0.747,1.089,1.409,1.326c1.494,1.311,3.238,1.755,5.187,1.493c0.715,0.005,1.43,0.01,2.145,0.016
			c2.132-0.006,4.264-0.011,6.396-0.016c0.715,0.005,1.43,0.01,2.145,0.016c2.132-0.006,4.264-0.011,6.396-0.016
			c0.715,0.005,1.43,0.01,2.145,0.016c2.132-0.006,4.264-0.011,6.396-0.016c0.715,0.005,1.43,0.01,2.145,0.016
			c2.132-0.006,4.264-0.011,6.396-0.016c0.715,0.006,1.429,0.012,2.144,0.018c4.607,0.221,6.687-0.739,7.945-3.695
			c0.654-1.536,0.694-3.148,0.529-4.78c-0.154-1.337,0.443-1.923,1.774-1.775c2.132-0.005,4.264-0.01,6.396-0.015
			c0.715,0.005,1.43,0.01,2.145,0.015c2.132-0.005,4.264-0.01,6.396-0.015c0.715,0.005,1.43,0.01,2.145,0.015
			c2.132-0.005,4.264-0.01,6.396-0.015c0.715,0.005,1.43,0.01,2.145,0.015c2.132-0.005,4.264-0.01,6.396-0.015
			c0.715,0.005,1.43,0.01,2.146,0.015c2.131-0.005,4.263-0.01,6.396-0.015C169.455,149.334,170.17,149.34,170.885,149.345z"/>
		<g>
			<path fill-rule="evenodd" clip-rule="evenodd" fill="#00ABE5" d="M167.545,134.472c-0.003-0.573-0.006-1.146-0.01-1.721
				c0.004-2.272,0.007-4.546,0.01-6.819c-0.003-0.573-0.006-1.146-0.01-1.721c0.004-2.272,0.007-4.546,0.01-6.819
				c-0.003-0.573-0.006-1.146-0.01-1.721c0.004-2.272,0.007-4.546,0.01-6.819c-0.003-0.573-0.006-1.147-0.01-1.721
				c0.004-2.272,0.007-4.546,0.01-6.819c-0.003-0.573-0.006-1.147-0.01-1.72c0.004-2.274,0.007-4.547,0.01-6.82
				c-0.003-0.573-0.006-1.146-0.01-1.72c0.004-2.274,0.007-4.547,0.01-6.82c-0.003-0.574-0.006-1.146-0.01-1.721
				c0.004-2.273,0.007-4.546,0.01-6.819c-0.003-0.574-0.006-1.147-0.01-1.721c0.004-2.273,0.007-4.546,0.01-6.819
				c-0.003-0.574-0.006-1.147-0.01-1.721c0.003-2.272,0.006-14.546,0.009-16.819c-0.003-0.573-0.006-1.146-0.01-1.721
				c0.004-2.273,0.007-4.547,0.011-6.82c-0.172-0.172-0.343-0.344-0.515-0.515c-2.273,0.003-4.548,0.007-6.821,0.01
				c-0.573-0.003-1.146-0.006-1.721-0.01c-2.272,0.003-4.546,0.006-6.819,0.009c-0.573-0.003-1.146-0.006-1.72-0.009
				c-2.273,0.003-4.547,0.006-6.82,0.009c-0.573-0.003-1.146-0.006-1.72-0.009c-2.273,0.003-4.547,0.006-6.82,0.009
				c-0.573-0.003-1.146-0.006-1.72-0.009c-2.273,0.003-4.546,0.006-6.82,0.009c-0.573-0.003-1.146-0.006-1.72-0.009
				c-2.273,0.003-4.546,0.006-6.819,0.009c-0.574-0.003-1.147-0.006-1.721-0.009c-2.273,0.003-4.547,0.006-6.82,0.009
				c-0.573-0.003-1.146-0.006-1.72-0.009c-2.273,0.003-4.547,0.006-6.82,0.009c-0.573-0.003-1.146-0.006-1.72-0.009
				c-2.273,0.003-4.547,0.006-6.82,0.009c-0.573-0.003-1.146-0.006-1.72-0.009c-2.274,0.003-4.547,0.006-6.82,0.009
				c-0.573-0.003-1.147-0.006-1.72-0.009c-2.273,0.003-4.547,0.006-6.82,0.009c-0.573-0.003-1.146-0.006-1.72-0.009
				c-2.274,0.003-4.547,0.006-6.82,0.009c-0.573-0.003-1.147-0.006-1.72-0.009c-2.273,0.003-4.547,0.006-6.82,0.009
				c-0.573-0.003-1.146-0.006-1.721-0.009c-2.273,0.003-4.546,0.006-6.819,0.009c-0.573-0.003-1.147-0.006-1.72-0.009
				c-2.273,0.003-4.547,0.006-6.82,0.009c-0.573-0.003-1.146-0.006-1.721-0.009c-2.121,0.037-4.242,0.075-6.363,0.113
				c-0.037,2.121-0.075,4.242-0.113,6.363c0.004,0.573,0.006,1.146,0.01,1.721c-0.004,2.272-0.006,14.546-0.01,16.819
				c0.004,0.573,0.006,1.146,0.01,1.721c-0.004,2.272-0.006,4.546-0.01,6.819c0.004,0.573,0.006,1.146,0.01,1.72
				c-0.004,2.273-0.006,4.547-0.01,6.82c0.004,0.573,0.006,1.146,0.01,1.72c-0.004,2.273-0.006,4.547-0.01,6.82
				c0.004,0.573,0.006,1.146,0.01,1.721c-0.004,2.273-0.006,4.546-0.01,6.819c0.004,0.574,0.006,1.146,0.01,1.721
				c-0.004,2.272-0.006,4.546-0.01,6.819c0.004,0.574,0.006,1.146,0.01,1.721c-0.004,2.273-0.006,4.546-0.01,6.819
				c0.004,0.574,0.006,1.146,0.01,1.721c-0.004,2.273-0.006,4.546-0.01,6.819c0.004,0.573,0.006,1.146,0.01,1.721
				c-0.004,2.273-0.006,4.546-0.01,6.82c0.004,0.572,0.006,1.146,0.01,1.72c0.031,1.831,0.064,3.661,0.097,5.493
				c0.706,0.044,1.411,0.09,2.117,0.135c2.273-0.004,4.547-0.007,6.82-0.01c0.573,0.003,1.147,0.006,1.72,0.01
				c2.273-0.004,4.547-0.007,6.82-0.01c0.573,0.003,1.146,0.006,1.72,0.01c2.274-0.004,4.546-0.007,6.819-0.01
				c0.574,0.003,1.147,0.006,1.721,0.01c2.273-0.004,4.547-0.007,6.82-0.01c0.573,0.003,1.146,0.006,1.721,0.01
				c2.273-0.004,4.546-0.007,6.818-0.01c0.574,0.003,1.147,0.006,1.721,0.01c2.273-0.004,4.547-0.007,6.82-0.01
				c0.573,0.003,1.146,0.006,1.721,0.009c2.272-0.003,4.546-0.007,6.819-0.011c0.573,0.004,1.147,0.007,1.72,0.01
				c2.273-0.003,4.547-0.006,6.82-0.009c0.573,0.004,1.146,0.007,1.72,0.011c2.273-0.004,4.547-0.007,6.82-0.01
				c0.573,0.003,1.147,0.006,1.72,0.01c2.273-0.004,4.547-0.007,6.82-0.01c0.573,0.003,1.147,0.006,1.721,0.01
				c2.272-0.004,4.546-0.007,6.819-0.01c0.573,0.003,1.147,0.006,1.721,0.01c2.273-0.004,4.546-0.007,6.819-0.01
				c0.573,0.003,1.146,0.006,1.721,0.01c2.273-0.004,4.546-0.007,6.819-0.01c0.573,0.003,1.146,0.006,1.721,0.01
				c2.273-0.004,4.546-0.007,6.819-0.01c0.573,0.003,1.146,0.006,1.721,0.01c2.273-0.004,4.546-0.007,6.819-0.01
				c0.573,0.003,1.146,0.006,1.721,0.01c1.473-0.067,3.384,0.406,4.306-0.34C168.183,138.01,167.23,135.979,167.545,134.472z
				 M158.514,135.674c-0.578-0.004-1.155-0.007-1.732-0.01c-2.27,0.003-4.538,0.006-6.808,0.01c-0.578-0.004-1.155-0.007-1.732-0.01
				c-2.27,0.003-4.538,0.006-6.808,0.01c-0.578-0.004-1.155-0.007-1.732-0.01c-2.27,0.003-4.538,0.006-6.808,0.01
				c-0.578-0.004-1.155-0.007-1.732-0.01c-2.27,0.003-4.538,0.006-6.808,0.01c-0.578-0.004-1.155-0.007-1.733-0.01
				c-2.269,0.003-4.537,0.007-6.807,0.01c-0.577-0.003-1.155-0.007-1.733-0.01c-2.269,0.004-4.538,0.007-6.807,0.01
				c-0.577-0.003-1.155-0.006-1.732-0.009c-2.27,0.003-4.539,0.007-6.809,0.01c-0.577-0.004-1.154-0.007-1.732-0.011
				c-2.27,0.004-4.538,0.007-6.807,0.01c-0.578-0.003-1.156-0.006-1.732-0.01c-2.27,0.004-4.539,0.007-6.809,0.01
				c-0.577-0.003-1.154-0.007-1.732-0.01c-2.27,0.003-4.538,0.007-6.807,0.01c-0.578-0.003-1.156-0.007-1.732-0.01
				c-2.27,0.003-4.539,0.007-6.809,0.01c-0.576-0.003-1.154-0.006-1.732-0.009c-2.269,0.003-4.538,0.006-6.808,0.01
				c-0.577-0.004-1.154-0.007-1.731-0.011c-2.27,0.004-4.539,0.007-6.809,0.011c-0.578-0.004-1.154-0.008-1.732-0.011
				c-2.27,0.003-4.538,0.007-6.807,0.01c-0.578-0.003-1.156-0.006-1.733-0.01c-0.851,0.206-1.335,0.038-1.287-1.004
				c0.082-1.769,0.068-3.541,0.095-5.312c-0.004-0.578-0.006-1.154-0.01-1.731c0.004-2.27,0.007-4.539,0.01-6.809
				c-0.003-0.578-0.006-1.154-0.01-1.731c0.004-2.27,0.007-4.539,0.01-6.81c-0.004-0.577-0.006-1.154-0.01-1.731
				c0-0.423,0-0.845,0-1.267c0.004-1.848,0.008-3.694,0.01-5.542c-0.002-0.577-0.006-1.153-0.01-1.73
				c0.004-2.27,0.008-4.539,0.01-6.81c-0.002-0.577-0.006-1.153-0.01-1.73c0.004-2.27,0.008-4.54,0.01-6.81
				c-0.002-0.577-0.006-1.154-0.01-1.73c0.004-2.271,0.008-4.54,0.01-6.81c-0.002-0.577-0.006-1.154-0.01-1.731
				c0.004-2.27,0.008-4.539,0.01-6.809c-0.002-0.577-0.006-1.154-0.01-1.731c0.004-2.269,0.008-4.539,0.01-6.809
				c-0.003-0.577-0.006-11.154-0.01-11.73c0.005-2.372-1.064-5.488,0.419-6.894c1.35-1.278,4.434-0.362,6.755-0.281
				c0.576,0.003,1.154,0.006,1.732,0.01c2.269-0.004,4.537-0.007,6.807-0.01c0.578,0.003,1.155,0.006,1.732,0.01
				c2.27-0.004,4.539-0.007,6.808-0.01c0.578,0.003,1.155,0.006,1.733,0.01c2.269-0.004,4.538-0.007,6.807-0.01
				c0.578,0.003,1.155,0.006,1.733,0.01c2.269-0.004,4.538-0.007,6.807-0.01c0.578,0.003,1.155,0.006,1.733,0.01
				c2.269-0.004,4.538-0.007,6.807-0.01c0.578,0.003,1.154,0.007,1.732,0.01c2.27-0.004,4.539-0.007,6.808-0.011
				c0.578,0.003,1.156,0.006,1.733,0.01c2.27-0.003,4.538-0.006,6.807-0.009c0.578,0.003,1.156,0.006,1.733,0.009
				c2.269-0.003,4.538-0.006,6.808-0.01c0.577,0.004,1.155,0.007,1.732,0.01c2.27-0.003,4.538-0.006,6.808-0.009
				c0.577,0.003,1.155,0.006,1.732,0.009c2.27-0.003,4.538-0.006,6.807-0.009c0.578,0.003,1.156,0.006,1.733,0.009
				c2.269-0.003,4.538-0.006,6.808-0.01c0.577,0.004,1.154,0.007,1.732,0.01c2.269-0.003,4.538-0.006,6.808-0.01
				c0.577,0.004,1.154,0.007,1.732,0.01c2.27-0.003,4.538-0.006,6.807-0.009c0.578,0.003,1.156,0.006,1.733,0.009
				c2.27-0.003,4.538-0.006,6.807-0.009c1.078-0.262,1.49,0.144,1.228,1.225c-0.003,2.27-0.007,14.539-0.01,16.81
				c0.003,0.576,0.007,1.153,0.01,1.73c-0.003,2.27-0.006,4.539-0.01,6.81c0.004,0.576,0.007,1.153,0.01,1.73
				c-0.003,2.27-0.006,4.539-0.01,6.81c0.003,0.577,0.007,1.153,0.01,1.73c-0.003,2.27-0.007,4.539-0.01,6.81
				c0.003,0.577,0.007,1.153,0.01,1.73c-0.003,2.271-0.007,4.54-0.01,6.81c0.003,0.577,0.006,1.154,0.01,1.73
				c-0.004,2.27-0.007,4.54-0.01,6.81c0.003,0.577,0.006,1.154,0.01,1.73c-0.004,2.271-0.007,4.54-0.01,6.81
				c0.003,0.577,0.006,1.154,0.01,1.73c-0.004,2.271-0.007,4.54-0.01,6.81c0.003,0.577,0.006,1.154,0.01,1.73
				c-0.004,2.271-0.007,4.54-0.01,6.81c0.003,0.577,0.006,1.154,0.01,1.73C164.284,135.979,164.284,135.979,158.514,135.674z"/>
			<path fill-rule="evenodd" clip-rule="evenodd" fill="#00ABE5" d="M85.812,95.386c-0.975-1.184-1.949-2.367-2.924-3.55
				c-0.621-0.416-1.244-0.831-1.865-1.246c-1.16-0.454-2.244-1.041-3.233-1.801c-0.442-0.244-0.884-0.487-1.325-0.732
				c-1.495-0.565-2.801-1.404-3.814-2.66c-0.661-0.408-1.05-1.004-1.207-1.758c-0.863-3.424,1.15-5.448,5.067-5.098
				c0.606-0.075,1.207-0.11,1.769,0.204c1.582,0.235,3.023,0.788,4.227,1.878c0.494-0.053,0.591-0.529,0.867-0.815
				c0.373-1.109,0.682-2.246,1.138-3.321c0.433-1.025,0.155-1.707-0.739-2.24c-0.58-0.238-1.161-0.477-1.742-0.715
				c-4.888-0.917-3.789-0.229-3.759-3.538c-0.023-0.41-0.048-0.82-0.071-1.231c-1.844-0.058-3.686-0.116-5.528-0.175
				c-0.1,0.094-0.219,0.141-0.356,0.141c-0.008,1.135-0.036,2.27-0.018,3.403c0.01,0.704-0.146,1.115-0.939,1.379
				c-4.646,1.543-6.934,4.895-7.209,9.711c0.109,0.571,0.219,1.142,0.328,1.713c0.482,1.227,0.965,2.455,1.448,3.682
				c0.563,0.612,1.129,1.224,1.692,1.835c1.119,0.711,2.238,1.422,3.357,2.133c0.441,0.231,0.883,0.464,1.323,0.696
				c1.595,0.725,3.195,1.438,4.528,2.617c0.379,0.301,0.756,0.601,1.135,0.901c1.818,1.447,2.724,3.305,1.926,5.559
				c-0.785,2.22-2.881,2.481-4.874,2.617c-1.541,0.104-3.084-0.027-4.489-0.802c-0.703-0.062-1.301-0.362-1.836-0.804
				c-0.82,0.153-1.58-1.728-2.215-0.398c-0.815,1.705-1.979,3.377-1.873,5.431c0.209,0.112,0.418,0.226,0.626,0.339
				c1.511,0.535,3.022,1.07,4.532,1.605c0.83,0.291,1.828-0.115,2.555,0.612c0.773,1.628-0.523,3.574,0.787,5.12
				c0.57,0.007,1.139,0.014,1.709,0.021c3.468-0.313,3.469-0.313,3.483-3.97c0.001-0.282,0.036-0.571-0.009-0.847
				c-0.143-0.88,0.312-1.3,1.092-1.504c2.8-0.734,4.832-2.516,6.501-4.788c0.299-0.851,0.598-1.702,0.896-2.553
				c0.042-2.14,0.154-4.286-0.585-6.354C86.062,95.851,85.938,95.618,85.812,95.386z"/>
			<path fill-rule="evenodd" clip-rule="evenodd" fill="#00ABE5" d="M139.715,94.666c-0.451-0.175-0.903-0.349-1.354-0.523
				c-1.554-0.62-3.107-1.241-4.661-1.861c-0.274-0.022-0.548-0.044-0.821-0.065c-0.145-0.149-0.287-0.3-0.431-0.448
				c-0.28-0.008-0.562-0.015-0.843-0.022c-1.283-0.58-2.565-1.161-3.849-1.742c-0.428-0.1-0.856-0.2-1.284-0.301
				c-0.151-0.136-0.302-0.272-0.453-0.408c-0.279-0.02-0.558-0.039-0.836-0.059c-1.159-0.522-2.318-1.044-3.478-1.566
				c-0.755-0.305-1.51-0.608-2.264-0.912c-1.355-0.505-2.711-1.01-4.066-1.515c-0.443-0.192-0.888-0.386-1.332-0.579
				c-1.69-0.648-3.381-1.297-5.072-1.945c-0.454-0.171-0.907-0.342-1.361-0.513c-1.555-0.619-3.109-1.237-4.664-1.856
				c-1.222-0.228-0.673,0.604-0.666,1.113c0.709,1.517,1.299,3.074,1.658,4.715c0.381,0.289,0.372,0.725,0.423,1.137
				c0.798,1.536,1.337,3.166,1.757,4.84c0.22,0.583,0.439,1.165,0.66,1.747c0.48,1.359,0.962,2.719,1.443,4.078
				c0.439,0.706,0.722,1.469,0.823,2.295c0.505,1.163,1.011,2.325,1.517,3.487c0.051,0.408,0.103,0.817,0.153,1.227
				c0.146,0.146,0.29,0.293,0.436,0.439c0.016,0.273,0.033,0.547,0.049,0.82c0.552,1.294,1.103,2.587,1.652,3.88
				c0.011,0.276,0.021,0.554,0.03,0.831c0.138,0.148,0.274,0.297,0.412,0.446c0.095,0.429,0.189,0.856,0.284,1.285
				c0.477,1.382,0.954,2.763,1.431,4.145c0.238,0.611,0.476,1.223,0.713,1.835c0.485,0.577,0.321,1.532,1.159,1.982
				c0.811-2.105,1.608-4.177,2.405-6.25c0.902-2.704,1.804-5.409,2.811-8.429c1.362,1.065,2.279,2.145,3.159,3.265
				c1.101,0.894,2.089,1.896,2.918,3.049c0.321,0.338,0.644,0.675,0.965,1.013c0.959,0.982,1.919,1.964,2.878,2.945
				c2.367-1.49,4.215-3.526,5.949-5.68c-0.845-0.854-1.688-1.708-2.532-2.562c-0.694-0.448-1.266-1.02-1.714-1.714
				c-0.977-0.729-1.828-1.581-2.558-2.557c-1.018-0.952-2.035-1.905-3.268-3.059c2.636-1.087,5.043-1.923,7.553-2.469
				c2.144-0.782,4.286-1.563,6.459-2.356C141.334,95.121,140.379,95.159,139.715,94.666z"/>
		</g>
	</g>
</g>
</svg>
