<?xml version="1.0" encoding="utf-8"?>
<!-- Generator: Adobe Illustrator 16.0.0, SVG Export Plug-In . SVG Version: 6.00 Build 0)  -->
<!DOCTYPE svg PUBLIC "-//W3C//DTD SVG 1.1//EN" "http://www.w3.org/Graphics/SVG/1.1/DTD/svg11.dtd">
<svg version="1.1" id="Layer_1" xmlns="http://www.w3.org/2000/svg" xmlns:xlink="http://www.w3.org/1999/xlink" x="0px" y="0px"
	 width="200px" height="200px" viewBox="0 0 200 200" enable-background="new 0 0 200 200" xml:space="preserve">
<g id="kvDxYE.tif">
	<g>
		<path fill-rule="evenodd" clip-rule="evenodd" fill="#38A8E5" d="M196.729,150.849c-0.238,0.276-0.42,0.668-0.724,0.809
			c-0.956,0.444-2.119,1.299-2.9,1.051c-0.922-0.293-1.619-1.515-2.231-2.452c-0.26-0.402-0.062-1.104-0.062-1.672
			c0-28.966,0-57.933,0.001-86.898c0-0.688,0-1.375,0-2.233c-60.528,0-120.931,0-181.526,0c-0.033,0.664-0.094,1.331-0.094,2
			c-0.005,28.777-0.028,57.555,0.007,86.332c0.017,13.169,9.665,24.321,22.602,26.222c1.671,0.246,3.374,0.377,5.063,0.379
			c25.629,0.021,51.257,0.014,76.886,0.013c0.314,0,0.63-0.009,0.944,0.007c1.93,0.104,3.332,1.356,3.303,2.943
			c-0.029,1.596-1.437,2.832-3.39,2.839c-7.366,0.023-14.734,0.013-22.102,0.012c-18.324-0.001-36.648,0.006-54.973-0.011
			c-16.734-0.017-30.496-11.443-33.656-27.919c-0.211-1.103-0.404-2.207-0.605-3.311c0-37.532,0-75.065,0-112.598
			c0.148-0.539,0.374-1.072,0.433-1.621C5.1,21.771,14.938,10.081,27.498,6.583C29.843,5.931,32.252,5.522,34.633,5
			c43.578,0,87.157,0,130.734,0c0.538,0.147,1.069,0.355,1.617,0.435c13.146,1.92,22.229,9.134,27.276,21.313
			c1.254,3.025,1.669,6.399,2.468,9.612C196.729,74.523,196.729,112.685,196.729,150.849z M190.434,53.392
			c0-6.734,0.57-13.376-0.121-19.884c-1.339-12.648-12.993-22.57-25.76-22.576c-42.682-0.023-85.361-0.017-128.042,0.002
			c-1.625,0.001-3.261,0.165-4.875,0.38C20.604,12.78,10.801,22.308,9.674,33.385c-0.66,6.478-0.314,13.058-0.413,19.592
			c-0.001,0.104,0.11,0.209,0.224,0.415C69.782,53.392,130.128,53.392,190.434,53.392z"/>
		<path fill-rule="evenodd" clip-rule="evenodd" fill="#38A8E5" d="M97.355,130.578c-0.041-4.814,0.961-9.376,3.056-13.691
			c1.377-2.835,3.354-3.115,5.614-0.843c5.417,5.444,10.842,10.88,16.279,16.304c2.257,2.251,2.647,2.236,4.85,0.037
			c1.291-1.291,2.586-2.576,3.867-3.877c1.687-1.707,1.71-2.277-0.017-4.036c-2.866-2.919-5.776-5.796-8.669-8.69
			c-2.759-2.76-5.528-5.509-8.274-8.282c-1.986-2.006-1.655-4.033,0.893-5.253c18.463-8.841,42.212,1.438,45.006,24.14
			c0.325,2.651,0.211,5.386,0.027,8.062c-0.121,1.812,0.171,3.126,1.55,4.485c9.643,9.495,19.054,19.228,28.814,28.601
			c4.271,4.103,3.153,10.667,0.308,13.617c-3.671,3.804-7.353,7.607-11.229,11.198c-4.009,3.711-9.722,3.462-13.537-0.343
			c-9.539-9.512-19.103-19-28.545-28.604c-1.465-1.49-2.866-1.892-4.806-1.641c-7.94,1.026-15.293-0.745-21.842-5.28
			C101.702,150.248,97.615,141.364,97.355,130.578z M104.42,122.532c-3.675,7.675-1.889,20.466,8.131,28.446
			c11.062,8.812,24.46,7.553,34.133-1.604c9.797-9.274,11.526-23.167,3.16-34.31c-7.859-10.464-20.796-12.681-29.073-8.925
			c0.538,0.588,1.017,1.15,1.536,1.671c4.134,4.147,8.304,8.261,12.408,12.438c2.407,2.452,3.853,5.639,2.451,8.76
			c-1.998,4.447-5.497,8.045-10.048,9.929c-3.098,1.283-6.193-0.104-8.592-2.458c-4.181-4.101-8.294-8.271-12.442-12.404
			C105.561,123.556,105.001,123.069,104.42,122.532z M141.727,159.722c0.361,0.442,0.606,0.802,0.908,1.103
			c9.252,9.263,18.499,18.525,27.771,27.768c1.644,1.641,2.964,1.755,4.771,0.029c4.005-3.823,7.922-7.741,11.745-11.743
			c1.753-1.833,1.596-3.143-0.164-4.903c-9.074-9.081-18.162-18.149-27.252-27.216c-0.457-0.458-0.976-0.854-1.503-1.312
			C153.317,151.992,150.43,154.933,141.727,159.722z"/>
		<path fill-rule="evenodd" clip-rule="evenodd" fill="#38A8E5" d="M114.98,32.209c-0.01,6.066-5.824,11.901-11.911,11.953
			c-6.08,0.05-12.058-5.952-12.004-12.053c0.053-6.027,6.047-11.947,12.008-11.862C109.17,20.333,114.989,26.18,114.98,32.209z
			 M103.106,26.039c-3.985-0.017-6.245,2.198-6.249,6.124c-0.005,3.892,2.199,6.183,5.98,6.214c3.986,0.035,6.332-2.195,6.358-6.045
			C109.225,28.351,107.001,26.054,103.106,26.039z"/>
		<path fill-rule="evenodd" clip-rule="evenodd" fill="#38A8E5" d="M145.208,32.191c0.01,6.061-5.794,11.9-11.893,11.97
			c-6.072,0.069-12.061-5.923-12.023-12.036c0.037-6.017,6.023-11.948,11.991-11.879C139.372,20.316,145.199,26.153,145.208,32.191z
			 M139.425,32.217c0.005-3.934-2.254-6.182-6.207-6.178c-3.872,0.003-6.117,2.218-6.133,6.051
			c-0.019,4.003,2.187,6.278,6.096,6.288C137.119,38.389,139.419,36.12,139.425,32.217z"/>
		<path fill-rule="evenodd" clip-rule="evenodd" fill="#38A8E5" d="M163.421,20.247c6.048-0.016,11.914,5.771,12.016,11.854
			c0.101,6.085-5.871,12.09-11.992,12.061c-6.051-0.029-11.873-5.863-11.925-11.945C151.471,26.237,157.411,20.262,163.421,20.247z
			 M169.652,32.248c0.011-3.959-2.227-6.208-6.176-6.209c-3.879-0.001-6.143,2.209-6.165,6.019c-0.021,4.01,2.18,6.304,6.065,6.32
			C167.331,38.395,169.642,36.138,169.652,32.248z"/>
	</g>
</g>
</svg>
